<svg width="184" height="24" viewBox="0 0 184 24" fill="none" xmlns="http://www.w3.org/2000/svg">
<path d="M17.5 19H9.00001C7.70187 18.9997 6.4294 18.6384 5.32478 17.9565C4.22017 17.2746 3.32693 16.2989 2.74488 15.1386C2.16283 13.9783 1.9149 12.679 2.0288 11.3858C2.1427 10.0927 2.61394 8.85671 3.38985 7.81598C4.16577 6.77526 5.2158 5.97079 6.42261 5.49249C7.62941 5.01418 8.94545 4.88087 10.2237 5.10747C11.5019 5.33406 12.6919 5.91162 13.6607 6.77561C14.6296 7.6396 15.3391 8.75598 15.71 10H17.5C18.6935 10 19.8381 10.4741 20.682 11.318C21.5259 12.1619 22 13.3065 22 14.5C22 15.6935 21.5259 16.8381 20.682 17.682C19.8381 18.5259 18.6935 19 17.5 19Z" stroke="#FFC799" stroke-width="2" stroke-linecap="round" stroke-linejoin="round"/>
<path d="M33.022 7.06H34.674V10.616C35.122 9.832 35.808 9.412 36.816 9.412C38.72 9.412 39.756 11.106 39.756 13.29C39.756 15.474 38.72 17.168 36.816 17.168C35.752 17.168 35.038 16.72 34.632 15.922L34.59 17H33.022V7.06ZM34.548 13.29C34.548 14.578 35.094 15.684 36.27 15.684C37.474 15.684 38.006 14.606 38.006 13.29C38.006 11.946 37.474 10.868 36.27 10.868C35.094 10.868 34.548 11.96 34.548 13.29ZM44.4545 9.58L44.5805 10.98C44.8185 10.014 45.4345 9.58 46.4145 9.58H47.9685V11.05H46.5545C45.4765 11.05 45.0285 11.568 45.0285 12.688V15.53H47.2965V17H41.5145V15.53H43.3765V11.05H41.5145V9.58H44.4545ZM49.5591 13.29C49.5591 10.924 50.9311 9.412 53.0871 9.412C54.8231 9.412 56.4051 10.56 56.4891 13.234V13.71H51.3371C51.4351 14.942 52.0651 15.684 53.0871 15.684C53.7591 15.684 54.3471 15.278 54.6131 14.606L56.3771 14.76C55.9571 16.23 54.6551 17.168 53.0871 17.168C50.9311 17.168 49.5591 15.656 49.5591 13.29ZM51.3791 12.548H54.6971C54.5011 11.386 53.8431 10.896 53.0871 10.896C52.1631 10.896 51.5471 11.498 51.3791 12.548ZM60.0536 7.62H61.7056V9.58H64.4916V11.05H61.7056V14.522C61.7056 15.152 62.0416 15.53 62.6576 15.53H64.4776V17H62.4336C60.7956 17 60.0536 16.16 60.0536 14.718V11.05H57.9676V9.58H60.0536V7.62ZM68.4481 7.62H70.1001V9.58H72.8861V11.05H70.1001V14.522C70.1001 15.152 70.4361 15.53 71.0521 15.53H72.8721V17H70.8281C69.1901 17 68.4481 16.16 68.4481 14.718V11.05H66.3621V9.58H68.4481V7.62ZM78.8727 10.56L79.6847 14.34L80.4687 9.58H82.1767L80.7207 17H79.0547L78.1727 12.954L77.2907 17H75.6247L74.1687 9.58H75.8767L76.6607 14.34L77.4727 10.56H78.8727ZM83.3752 19.1V9.58H84.9432L84.9852 10.672C85.4052 9.86 86.1052 9.412 87.1412 9.412C89.0872 9.412 90.1232 11.106 90.1232 13.29C90.1232 15.474 89.0872 17.168 87.1412 17.168C86.1612 17.168 85.4752 16.748 85.0272 15.95V19.1H83.3752ZM84.9012 13.29C84.9012 14.578 85.4472 15.684 86.6232 15.684C87.8132 15.684 88.3592 14.606 88.3592 13.29C88.3592 11.974 87.8132 10.896 86.6232 10.896C85.4472 10.896 84.9012 12.002 84.9012 13.29ZM94.9617 17.168C92.8897 17.168 91.4477 15.614 91.4477 13.29C91.4477 10.966 92.8897 9.412 94.9617 9.412C97.0337 9.412 98.4757 10.966 98.4757 13.29C98.4757 15.614 97.0337 17.168 94.9617 17.168ZM93.1977 13.29C93.1977 14.774 93.8557 15.684 94.9617 15.684C96.0677 15.684 96.7257 14.774 96.7257 13.29C96.7257 11.806 96.0677 10.896 94.9617 10.896C93.8557 10.896 93.1977 11.806 93.1977 13.29ZM103.216 9.58L103.342 10.98C103.58 10.014 104.196 9.58 105.176 9.58H106.73V11.05H105.316C104.238 11.05 103.79 11.568 103.79 12.688V15.53H106.058V17H100.276V15.53H102.138V11.05H100.276V9.58H103.216ZM110.421 7.62H112.073V9.58H114.859V11.05H112.073V14.522C112.073 15.152 112.409 15.53 113.025 15.53H114.845V17H112.801C111.163 17 110.421 16.16 110.421 14.718V11.05H108.335V9.58H110.421V7.62ZM116.715 13.29C116.715 10.924 118.087 9.412 120.243 9.412C121.979 9.412 123.561 10.56 123.645 13.234V13.71H118.493C118.591 14.942 119.221 15.684 120.243 15.684C120.915 15.684 121.503 15.278 121.769 14.606L123.533 14.76C123.113 16.23 121.811 17.168 120.243 17.168C118.087 17.168 116.715 15.656 116.715 13.29ZM118.535 12.548H121.853C121.657 11.386 120.999 10.896 120.243 10.896C119.319 10.896 118.703 11.498 118.535 12.548ZM128.4 9.58L128.526 10.98C128.764 10.014 129.38 9.58 130.36 9.58H131.914V11.05H130.5C129.422 11.05 128.974 11.568 128.974 12.688V15.53H131.242V17H125.46V15.53H127.322V11.05H125.46V9.58H128.4ZM134.05 18.26L138.194 6.5H139.818L135.674 18.26H134.05ZM146.645 9.58V15.53H149.011V17H142.221V15.53H144.993V11.05H142.445V9.58H146.645ZM144.909 8.628V7.06H146.631V8.628H144.909ZM150.839 9.58H152.351L152.407 10.784C152.799 9.874 153.541 9.412 154.507 9.412C156.075 9.412 156.887 10.56 156.887 12.226V17H155.221V12.59C155.221 11.372 154.843 10.728 153.975 10.728C153.051 10.728 152.491 11.372 152.491 12.59V17H150.839V9.58ZM160.732 9.524C160.732 7.914 161.516 7.06 163.28 7.06H165.156V8.53H163.168C162.692 8.53 162.384 8.866 162.384 9.426V10.182H165.044V11.638H162.384V17H160.732V11.638H158.8V10.182H160.732V9.524ZM170.373 9.58L170.499 10.98C170.737 10.014 171.353 9.58 172.333 9.58H173.887V11.05H172.473C171.395 11.05 170.947 11.568 170.947 12.688V15.53H173.215V17H167.433V15.53H169.295V11.05H167.433V9.58H170.373ZM175.673 11.834C175.953 10.308 177.199 9.412 178.823 9.412C180.671 9.412 181.819 10.476 181.819 12.52V15.012C181.819 15.376 181.959 15.53 182.267 15.53H182.589V17H182.197C181.301 17 180.769 16.524 180.629 15.866C180.335 16.58 179.411 17.168 178.277 17.168C176.751 17.168 175.547 16.37 175.547 15.054C175.547 13.542 176.639 12.968 178.459 12.646L180.153 12.324C180.125 11.372 179.593 10.896 178.767 10.896C178.053 10.896 177.535 11.316 177.395 11.932L175.673 11.834ZM177.297 14.956C177.325 15.404 177.703 15.74 178.501 15.74C179.467 15.726 180.167 15.082 180.167 13.962V13.696L178.851 13.934C177.913 14.088 177.283 14.228 177.297 14.956Z" fill="#E6E4E3"/>
</svg>
