<svg width="184" height="24" viewBox="0 0 184 24" fill="none" xmlns="http://www.w3.org/2000/svg">
<path d="M17.5 19H9.00001C7.70187 18.9997 6.4294 18.6384 5.32478 17.9565C4.22017 17.2746 3.32693 16.2989 2.74488 15.1386C2.16283 13.9783 1.9149 12.679 2.0288 11.3858C2.1427 10.0927 2.61394 8.85671 3.38985 7.81598C4.16577 6.77526 5.2158 5.97079 6.42261 5.49249C7.62941 5.01418 8.94545 4.88087 10.2237 5.10747C11.5019 5.33406 12.6919 5.91162 13.6607 6.77561C14.6296 7.6396 15.3391 8.75598 15.71 10H17.5C18.6935 10 19.8381 10.4741 20.682 11.318C21.5259 12.1619 22 13.3065 22 14.5C22 15.6935 21.5259 16.8381 20.682 17.682C19.8381 18.5259 18.6935 19 17.5 19Z" stroke="#FFC799" stroke-width="2" stroke-linecap="round" stroke-linejoin="round"/>
<path d="M37.516 9.58V15.53H39.882V17H33.092V15.53H35.864V11.05H33.316V9.58H37.516ZM35.78 8.628V7.06H37.502V8.628H35.78ZM41.7105 9.58H43.2225L43.2785 10.784C43.6705 9.874 44.4125 9.412 45.3785 9.412C46.9465 9.412 47.7585 10.56 47.7585 12.226V17H46.0925V12.59C46.0925 11.372 45.7145 10.728 44.8465 10.728C43.9225 10.728 43.3625 11.372 43.3625 12.59V17H41.7105V9.58ZM51.6031 9.524C51.6031 7.914 52.3871 7.06 54.1511 7.06H56.0271V8.53H54.0391C53.5631 8.53 53.2551 8.866 53.2551 9.426V10.182H55.9151V11.638H53.2551V17H51.6031V11.638H49.6711V10.182H51.6031V9.524ZM61.2436 9.58L61.3696 10.98C61.6076 10.014 62.2236 9.58 63.2036 9.58H64.7576V11.05H63.3436C62.2656 11.05 61.8176 11.568 61.8176 12.688V15.53H64.0856V17H58.3036V15.53H60.1656V11.05H58.3036V9.58H61.2436ZM66.5441 11.834C66.8241 10.308 68.0701 9.412 69.6941 9.412C71.5421 9.412 72.6901 10.476 72.6901 12.52V15.012C72.6901 15.376 72.8301 15.53 73.1381 15.53H73.4601V17H73.0681C72.1721 17 71.6401 16.524 71.5001 15.866C71.2061 16.58 70.2821 17.168 69.1481 17.168C67.6221 17.168 66.4181 16.37 66.4181 15.054C66.4181 13.542 67.5101 12.968 69.3301 12.646L71.0241 12.324C70.9961 11.372 70.4641 10.896 69.6381 10.896C68.9241 10.896 68.4061 11.316 68.2661 11.932L66.5441 11.834ZM68.1681 14.956C68.1961 15.404 68.5741 15.74 69.3721 15.74C70.3381 15.726 71.0381 15.082 71.0381 13.962V13.696L69.7221 13.934C68.7841 14.088 68.1541 14.228 68.1681 14.956ZM75.2887 18.26L79.4327 6.5H81.0567L76.9127 18.26H75.2887ZM83.3892 7.06H85.0412V10.616C85.4892 9.832 86.1752 9.412 87.1832 9.412C89.0872 9.412 90.1232 11.106 90.1232 13.29C90.1232 15.474 89.0872 17.168 87.1832 17.168C86.1192 17.168 85.4052 16.72 84.9992 15.922L84.9572 17H83.3892V7.06ZM84.9152 13.29C84.9152 14.578 85.4612 15.684 86.6372 15.684C87.8412 15.684 88.3732 14.606 88.3732 13.29C88.3732 11.946 87.8412 10.868 86.6372 10.868C85.4612 10.868 84.9152 11.96 84.9152 13.29ZM94.8217 9.58L94.9477 10.98C95.1857 10.014 95.8017 9.58 96.7817 9.58H98.3357V11.05H96.9217C95.8437 11.05 95.3957 11.568 95.3957 12.688V15.53H97.6637V17H91.8817V15.53H93.7437V11.05H91.8817V9.58H94.8217ZM99.9263 13.29C99.9263 10.924 101.298 9.412 103.454 9.412C105.19 9.412 106.772 10.56 106.856 13.234V13.71H101.704C101.802 14.942 102.432 15.684 103.454 15.684C104.126 15.684 104.714 15.278 104.98 14.606L106.744 14.76C106.324 16.23 105.022 17.168 103.454 17.168C101.298 17.168 99.9263 15.656 99.9263 13.29ZM101.746 12.548H105.064C104.868 11.386 104.21 10.896 103.454 10.896C102.53 10.896 101.914 11.498 101.746 12.548ZM110.421 7.62H112.073V9.58H114.859V11.05H112.073V14.522C112.073 15.152 112.409 15.53 113.025 15.53H114.845V17H112.801C111.163 17 110.421 16.16 110.421 14.718V11.05H108.335V9.58H110.421V7.62ZM118.815 7.62H120.467V9.58H123.253V11.05H120.467V14.522C120.467 15.152 120.803 15.53 121.419 15.53H123.239V17H121.195C119.557 17 118.815 16.16 118.815 14.718V11.05H116.729V9.58H118.815V7.62ZM129.24 10.56L130.052 14.34L130.836 9.58H132.544L131.088 17H129.422L128.54 12.954L127.658 17H125.992L124.536 9.58H126.244L127.028 14.34L127.84 10.56H129.24ZM133.742 19.1V9.58H135.31L135.352 10.672C135.772 9.86 136.472 9.412 137.508 9.412C139.454 9.412 140.49 11.106 140.49 13.29C140.49 15.474 139.454 17.168 137.508 17.168C136.528 17.168 135.842 16.748 135.394 15.95V19.1H133.742ZM135.268 13.29C135.268 14.578 135.814 15.684 136.99 15.684C138.18 15.684 138.726 14.606 138.726 13.29C138.726 11.974 138.18 10.896 136.99 10.896C135.814 10.896 135.268 12.002 135.268 13.29ZM145.329 17.168C143.257 17.168 141.815 15.614 141.815 13.29C141.815 10.966 143.257 9.412 145.329 9.412C147.401 9.412 148.843 10.966 148.843 13.29C148.843 15.614 147.401 17.168 145.329 17.168ZM143.565 13.29C143.565 14.774 144.223 15.684 145.329 15.684C146.435 15.684 147.093 14.774 147.093 13.29C147.093 11.806 146.435 10.896 145.329 10.896C144.223 10.896 143.565 11.806 143.565 13.29ZM153.583 9.58L153.709 10.98C153.947 10.014 154.563 9.58 155.543 9.58H157.097V11.05H155.683C154.605 11.05 154.157 11.568 154.157 12.688V15.53H156.425V17H150.643V15.53H152.505V11.05H150.643V9.58H153.583ZM160.788 7.62H162.44V9.58H165.226V11.05H162.44V14.522C162.44 15.152 162.776 15.53 163.392 15.53H165.212V17H163.168C161.53 17 160.788 16.16 160.788 14.718V11.05H158.702V9.58H160.788V7.62ZM167.083 13.29C167.083 10.924 168.455 9.412 170.611 9.412C172.347 9.412 173.929 10.56 174.013 13.234V13.71H168.861C168.959 14.942 169.589 15.684 170.611 15.684C171.283 15.684 171.871 15.278 172.137 14.606L173.901 14.76C173.481 16.23 172.179 17.168 170.611 17.168C168.455 17.168 167.083 15.656 167.083 13.29ZM168.903 12.548H172.221C172.025 11.386 171.367 10.896 170.611 10.896C169.687 10.896 169.071 11.498 168.903 12.548ZM178.767 9.58L178.893 10.98C179.131 10.014 179.747 9.58 180.727 9.58H182.281V11.05H180.867C179.789 11.05 179.341 11.568 179.341 12.688V15.53H181.609V17H175.827V15.53H177.689V11.05H175.827V9.58H178.767Z" fill="#E6E4E3"/>
</svg>
