<svg width="1200" height="630" viewBox="0 0 1200 630" fill="none" xmlns="http://www.w3.org/2000/svg">
<rect width="1200" height="630" rx="24" fill="white"/>
<path d="M107.957 188.696C107.753 186.634 106.875 185.031 105.324 183.889C103.773 182.747 101.668 182.176 99.0085 182.176C97.2017 182.176 95.6761 182.432 94.4318 182.943C93.1875 183.438 92.233 184.128 91.5682 185.014C90.9205 185.901 90.5966 186.906 90.5966 188.031C90.5625 188.969 90.7585 189.787 91.1847 190.486C91.6278 191.185 92.233 191.79 93 192.301C93.767 192.795 94.6534 193.23 95.6591 193.605C96.6648 193.963 97.7386 194.27 98.8807 194.526L103.585 195.651C105.869 196.162 107.966 196.844 109.875 197.696C111.784 198.548 113.438 199.597 114.835 200.841C116.233 202.085 117.315 203.551 118.082 205.239C118.866 206.926 119.267 208.861 119.284 211.043C119.267 214.247 118.449 217.026 116.83 219.378C115.227 221.713 112.909 223.528 109.875 224.824C106.858 226.102 103.219 226.741 98.9574 226.741C94.7301 226.741 91.0483 226.094 87.9119 224.798C84.7926 223.503 82.3551 221.585 80.5994 219.045C78.8608 216.489 77.9489 213.327 77.8636 209.56H88.5767C88.696 211.315 89.1989 212.781 90.0852 213.957C90.9886 215.116 92.1903 215.994 93.6903 216.591C95.2074 217.17 96.9205 217.46 98.8295 217.46C100.705 217.46 102.332 217.187 103.713 216.642C105.111 216.097 106.193 215.338 106.96 214.366C107.727 213.395 108.111 212.278 108.111 211.017C108.111 209.841 107.761 208.852 107.062 208.051C106.381 207.25 105.375 206.568 104.045 206.006C102.733 205.443 101.122 204.932 99.2131 204.472L93.5114 203.04C89.0966 201.966 85.6108 200.287 83.054 198.003C80.4972 195.719 79.2273 192.642 79.2443 188.773C79.2273 185.602 80.071 182.832 81.7756 180.463C83.4972 178.094 85.858 176.244 88.858 174.915C91.858 173.585 95.267 172.92 99.0852 172.92C102.972 172.92 106.364 173.585 109.261 174.915C112.176 176.244 114.443 178.094 116.062 180.463C117.682 182.832 118.517 185.577 118.568 188.696H107.957ZM126.526 226V186.727H137.418V226H126.526ZM131.998 181.665C130.379 181.665 128.989 181.128 127.83 180.054C126.688 178.963 126.117 177.659 126.117 176.142C126.117 174.642 126.688 173.355 127.83 172.281C128.989 171.19 130.379 170.645 131.998 170.645C133.617 170.645 134.998 171.19 136.14 172.281C137.299 173.355 137.879 174.642 137.879 176.142C137.879 177.659 137.299 178.963 136.14 180.054C134.998 181.128 133.617 181.665 131.998 181.665ZM146.143 226V186.727H156.524V193.656H156.984C157.803 191.355 159.166 189.54 161.075 188.21C162.984 186.881 165.268 186.216 167.928 186.216C170.621 186.216 172.913 186.889 174.805 188.236C176.697 189.565 177.959 191.372 178.589 193.656H178.999C179.8 191.406 181.249 189.608 183.345 188.261C185.459 186.898 187.956 186.216 190.837 186.216C194.501 186.216 197.476 187.384 199.76 189.719C202.061 192.037 203.212 195.327 203.212 199.588V226H192.345V201.736C192.345 199.554 191.766 197.918 190.607 196.827C189.447 195.736 187.999 195.19 186.26 195.19C184.283 195.19 182.74 195.821 181.632 197.082C180.524 198.327 179.97 199.972 179.97 202.017V226H169.411V201.506C169.411 199.58 168.857 198.045 167.749 196.903C166.658 195.761 165.217 195.19 163.428 195.19C162.217 195.19 161.126 195.497 160.155 196.111C159.2 196.707 158.442 197.551 157.879 198.642C157.317 199.716 157.036 200.977 157.036 202.426V226H146.143ZM211.815 240.727V186.727H222.554V193.324H223.04C223.517 192.267 224.207 191.193 225.111 190.102C226.031 188.994 227.224 188.074 228.69 187.341C230.173 186.591 232.014 186.216 234.213 186.216C237.077 186.216 239.719 186.966 242.139 188.466C244.56 189.949 246.494 192.19 247.943 195.19C249.392 198.173 250.116 201.915 250.116 206.415C250.116 210.795 249.409 214.494 247.994 217.511C246.597 220.511 244.688 222.787 242.267 224.338C239.864 225.872 237.17 226.639 234.188 226.639C232.074 226.639 230.276 226.29 228.793 225.591C227.327 224.892 226.125 224.014 225.188 222.957C224.25 221.884 223.534 220.801 223.04 219.71H222.707V240.727H211.815ZM222.477 206.364C222.477 208.699 222.801 210.736 223.449 212.474C224.097 214.213 225.034 215.568 226.261 216.54C227.489 217.494 228.98 217.972 230.736 217.972C232.509 217.972 234.009 217.486 235.236 216.514C236.463 215.526 237.392 214.162 238.023 212.423C238.67 210.668 238.994 208.648 238.994 206.364C238.994 204.097 238.679 202.102 238.048 200.381C237.418 198.659 236.489 197.312 235.261 196.341C234.034 195.369 232.526 194.884 230.736 194.884C228.963 194.884 227.463 195.352 226.236 196.29C225.026 197.227 224.097 198.557 223.449 200.278C222.801 202 222.477 204.028 222.477 206.364ZM268.27 173.636V226H257.378V173.636H268.27ZM294.893 226.767C290.853 226.767 287.376 225.949 284.461 224.312C281.563 222.659 279.33 220.324 277.762 217.307C276.194 214.273 275.41 210.685 275.41 206.543C275.41 202.503 276.194 198.957 277.762 195.906C279.33 192.855 281.538 190.477 284.384 188.773C287.248 187.068 290.606 186.216 294.458 186.216C297.049 186.216 299.461 186.634 301.694 187.469C303.944 188.287 305.904 189.523 307.575 191.176C309.262 192.83 310.575 194.909 311.512 197.415C312.45 199.903 312.918 202.818 312.918 206.159V209.151H279.756V202.401H302.665C302.665 200.832 302.325 199.443 301.643 198.233C300.961 197.023 300.015 196.077 298.805 195.395C297.612 194.696 296.222 194.347 294.637 194.347C292.984 194.347 291.518 194.73 290.239 195.497C288.978 196.247 287.989 197.261 287.273 198.54C286.558 199.801 286.191 201.207 286.174 202.759V209.176C286.174 211.119 286.532 212.798 287.248 214.213C287.981 215.628 289.012 216.719 290.342 217.486C291.671 218.253 293.248 218.636 295.072 218.636C296.282 218.636 297.39 218.466 298.396 218.125C299.401 217.784 300.262 217.273 300.978 216.591C301.694 215.909 302.239 215.074 302.614 214.085L312.688 214.75C312.177 217.17 311.129 219.284 309.543 221.091C307.975 222.881 305.947 224.278 303.458 225.284C300.987 226.273 298.131 226.767 294.893 226.767ZM344.495 200.176V208.818H320.614V200.176H344.495ZM374.665 186.727V194.909H351.015V186.727H374.665ZM356.384 177.318H367.276V213.932C367.276 214.937 367.43 215.722 367.737 216.284C368.043 216.83 368.469 217.213 369.015 217.435C369.577 217.656 370.225 217.767 370.958 217.767C371.469 217.767 371.981 217.724 372.492 217.639C373.004 217.537 373.396 217.46 373.668 217.409L375.381 225.514C374.836 225.685 374.069 225.881 373.08 226.102C372.092 226.341 370.89 226.486 369.475 226.537C366.85 226.639 364.549 226.29 362.572 225.489C360.612 224.687 359.086 223.443 357.995 221.756C356.904 220.068 356.367 217.937 356.384 215.364V177.318ZM399.083 226.767C395.112 226.767 391.677 225.923 388.779 224.236C385.898 222.531 383.674 220.162 382.106 217.128C380.538 214.077 379.754 210.54 379.754 206.517C379.754 202.46 380.538 198.915 382.106 195.881C383.674 192.83 385.898 190.46 388.779 188.773C391.677 187.068 395.112 186.216 399.083 186.216C403.055 186.216 406.481 187.068 409.362 188.773C412.259 190.46 414.492 192.83 416.06 195.881C417.629 198.915 418.413 202.46 418.413 206.517C418.413 210.54 417.629 214.077 416.06 217.128C414.492 220.162 412.259 222.531 409.362 224.236C406.481 225.923 403.055 226.767 399.083 226.767ZM399.134 218.33C400.941 218.33 402.45 217.818 403.66 216.795C404.87 215.756 405.782 214.341 406.396 212.551C407.026 210.761 407.342 208.724 407.342 206.44C407.342 204.156 407.026 202.119 406.396 200.33C405.782 198.54 404.87 197.125 403.66 196.085C402.45 195.045 400.941 194.526 399.134 194.526C397.31 194.526 395.776 195.045 394.532 196.085C393.305 197.125 392.376 198.54 391.745 200.33C391.131 202.119 390.825 204.156 390.825 206.44C390.825 208.724 391.131 210.761 391.745 212.551C392.376 214.341 393.305 215.756 394.532 216.795C395.776 217.818 397.31 218.33 399.134 218.33ZM449.964 200.176V208.818H426.083V200.176H449.964ZM491.793 173.636H502.864V207.642C502.864 211.46 501.952 214.801 500.129 217.665C498.322 220.528 495.79 222.761 492.535 224.364C489.279 225.949 485.487 226.741 481.157 226.741C476.81 226.741 473.009 225.949 469.754 224.364C466.498 222.761 463.967 220.528 462.16 217.665C460.353 214.801 459.45 211.46 459.45 207.642V173.636H470.521V206.696C470.521 208.69 470.955 210.463 471.825 212.014C472.711 213.565 473.955 214.784 475.558 215.67C477.16 216.557 479.026 217 481.157 217C483.305 217 485.171 216.557 486.756 215.67C488.359 214.784 489.594 213.565 490.464 212.014C491.35 210.463 491.793 208.69 491.793 206.696V173.636ZM544.445 197.926L534.473 198.54C534.303 197.687 533.936 196.92 533.374 196.239C532.811 195.54 532.07 194.986 531.149 194.577C530.246 194.151 529.163 193.938 527.902 193.938C526.214 193.938 524.791 194.295 523.632 195.011C522.473 195.71 521.893 196.648 521.893 197.824C521.893 198.761 522.268 199.554 523.018 200.202C523.768 200.849 525.055 201.369 526.879 201.761L533.987 203.193C537.805 203.977 540.652 205.239 542.527 206.977C544.402 208.716 545.339 211 545.339 213.83C545.339 216.403 544.581 218.662 543.064 220.605C541.564 222.548 539.501 224.065 536.876 225.156C534.268 226.23 531.26 226.767 527.851 226.767C522.652 226.767 518.51 225.685 515.425 223.52C512.357 221.338 510.558 218.372 510.03 214.622L520.743 214.06C521.067 215.645 521.851 216.855 523.095 217.69C524.339 218.509 525.933 218.918 527.876 218.918C529.786 218.918 531.32 218.551 532.479 217.818C533.655 217.068 534.251 216.105 534.268 214.929C534.251 213.94 533.834 213.131 533.016 212.5C532.197 211.852 530.936 211.358 529.232 211.017L522.43 209.662C518.595 208.895 515.74 207.565 513.865 205.673C512.007 203.781 511.078 201.369 511.078 198.438C511.078 195.915 511.76 193.741 513.124 191.918C514.504 190.094 516.439 188.688 518.928 187.699C521.433 186.71 524.365 186.216 527.723 186.216C532.683 186.216 536.587 187.264 539.433 189.361C542.297 191.457 543.967 194.312 544.445 197.926ZM570.096 226.767C566.056 226.767 562.579 225.949 559.664 224.312C556.766 222.659 554.533 220.324 552.965 217.307C551.397 214.273 550.613 210.685 550.613 206.543C550.613 202.503 551.397 198.957 552.965 195.906C554.533 192.855 556.741 190.477 559.587 188.773C562.451 187.068 565.809 186.216 569.661 186.216C572.252 186.216 574.664 186.634 576.897 187.469C579.147 188.287 581.107 189.523 582.778 191.176C584.465 192.83 585.778 194.909 586.715 197.415C587.653 199.903 588.121 202.818 588.121 206.159V209.151H554.96V202.401H577.869C577.869 200.832 577.528 199.443 576.846 198.233C576.164 197.023 575.218 196.077 574.008 195.395C572.815 194.696 571.425 194.347 569.84 194.347C568.187 194.347 566.721 194.73 565.442 195.497C564.181 196.247 563.192 197.261 562.477 198.54C561.761 199.801 561.394 201.207 561.377 202.759V209.176C561.377 211.119 561.735 212.798 562.451 214.213C563.184 215.628 564.215 216.719 565.545 217.486C566.874 218.253 568.451 218.636 570.275 218.636C571.485 218.636 572.593 218.466 573.599 218.125C574.604 217.784 575.465 217.273 576.181 216.591C576.897 215.909 577.442 215.074 577.817 214.085L587.891 214.75C587.38 217.17 586.332 219.284 584.746 221.091C583.178 222.881 581.15 224.278 578.661 225.284C576.19 226.273 573.335 226.767 570.096 226.767ZM77.5568 268.764V259.636H120.562V268.764H104.531V312H93.5881V268.764H77.5568ZM139.643 312.767C135.603 312.767 132.126 311.949 129.211 310.312C126.313 308.659 124.08 306.324 122.512 303.307C120.944 300.273 120.16 296.685 120.16 292.543C120.16 288.503 120.944 284.957 122.512 281.906C124.08 278.855 126.288 276.477 129.134 274.773C131.998 273.068 135.356 272.216 139.208 272.216C141.799 272.216 144.211 272.634 146.444 273.469C148.694 274.287 150.654 275.523 152.325 277.176C154.012 278.83 155.325 280.909 156.262 283.415C157.2 285.903 157.668 288.818 157.668 292.159V295.151H124.506V288.401H147.415C147.415 286.832 147.075 285.443 146.393 284.233C145.711 283.023 144.765 282.077 143.555 281.395C142.362 280.696 140.972 280.347 139.387 280.347C137.734 280.347 136.268 280.73 134.989 281.497C133.728 282.247 132.739 283.261 132.023 284.54C131.308 285.801 130.941 287.207 130.924 288.759V295.176C130.924 297.119 131.282 298.798 131.998 300.213C132.731 301.628 133.762 302.719 135.092 303.486C136.421 304.253 137.998 304.636 139.822 304.636C141.032 304.636 142.14 304.466 143.146 304.125C144.151 303.784 145.012 303.273 145.728 302.591C146.444 301.909 146.989 301.074 147.364 300.085L157.438 300.75C156.927 303.17 155.879 305.284 154.293 307.091C152.725 308.881 150.697 310.278 148.208 311.284C145.737 312.273 142.881 312.767 139.643 312.767ZM164.776 312V272.727H175.336V279.58H175.745C176.461 277.142 177.663 275.301 179.35 274.057C181.038 272.795 182.981 272.165 185.18 272.165C185.725 272.165 186.313 272.199 186.944 272.267C187.575 272.335 188.129 272.429 188.606 272.548V282.213C188.094 282.06 187.387 281.923 186.484 281.804C185.58 281.685 184.754 281.625 184.004 281.625C182.401 281.625 180.969 281.974 179.708 282.673C178.464 283.355 177.475 284.31 176.742 285.537C176.026 286.764 175.668 288.179 175.668 289.781V312H164.776ZM194.237 312V272.727H204.797V279.58H205.206C205.922 277.142 207.124 275.301 208.811 274.057C210.499 272.795 212.442 272.165 214.641 272.165C215.186 272.165 215.774 272.199 216.405 272.267C217.036 272.335 217.589 272.429 218.067 272.548V282.213C217.555 282.06 216.848 281.923 215.945 281.804C215.041 281.685 214.214 281.625 213.464 281.625C211.862 281.625 210.43 281.974 209.169 282.673C207.925 283.355 206.936 284.31 206.203 285.537C205.487 286.764 205.129 288.179 205.129 289.781V312H194.237ZM233.772 312.741C231.266 312.741 229.033 312.307 227.073 311.438C225.113 310.551 223.562 309.247 222.42 307.526C221.295 305.787 220.732 303.622 220.732 301.031C220.732 298.849 221.133 297.017 221.934 295.534C222.735 294.051 223.826 292.858 225.207 291.955C226.587 291.051 228.156 290.369 229.911 289.909C231.684 289.449 233.542 289.125 235.485 288.938C237.769 288.699 239.61 288.477 241.008 288.273C242.406 288.051 243.42 287.727 244.05 287.301C244.681 286.875 244.996 286.244 244.996 285.409V285.256C244.996 283.636 244.485 282.384 243.462 281.497C242.457 280.611 241.025 280.168 239.167 280.168C237.207 280.168 235.647 280.602 234.488 281.472C233.329 282.324 232.562 283.398 232.187 284.693L222.113 283.875C222.624 281.489 223.63 279.426 225.13 277.688C226.63 275.932 228.565 274.585 230.934 273.648C233.32 272.693 236.082 272.216 239.218 272.216C241.4 272.216 243.488 272.472 245.482 272.983C247.494 273.494 249.275 274.287 250.826 275.361C252.394 276.435 253.63 277.815 254.533 279.503C255.437 281.173 255.888 283.176 255.888 285.511V312H245.559V306.554H245.252C244.621 307.781 243.778 308.864 242.721 309.801C241.664 310.722 240.394 311.446 238.911 311.974C237.428 312.486 235.715 312.741 233.772 312.741ZM236.891 305.224C238.494 305.224 239.908 304.909 241.136 304.278C242.363 303.631 243.326 302.761 244.025 301.67C244.724 300.58 245.073 299.344 245.073 297.963V293.795C244.732 294.017 244.263 294.222 243.667 294.409C243.087 294.58 242.431 294.741 241.698 294.895C240.965 295.031 240.232 295.159 239.499 295.278C238.766 295.381 238.102 295.474 237.505 295.56C236.227 295.747 235.11 296.045 234.156 296.455C233.201 296.864 232.46 297.418 231.931 298.116C231.403 298.798 231.138 299.651 231.138 300.673C231.138 302.156 231.675 303.29 232.749 304.074C233.84 304.841 235.221 305.224 236.891 305.224ZM285.458 272.727V280.909H261.219V272.727H285.458ZM266.768 312V269.889C266.768 267.043 267.322 264.682 268.43 262.807C269.555 260.932 271.089 259.526 273.032 258.588C274.975 257.651 277.183 257.182 279.654 257.182C281.325 257.182 282.85 257.31 284.231 257.565C285.629 257.821 286.668 258.051 287.35 258.256L285.407 266.438C284.981 266.301 284.452 266.173 283.822 266.054C283.208 265.935 282.577 265.875 281.93 265.875C280.327 265.875 279.211 266.25 278.58 267C277.95 267.733 277.634 268.764 277.634 270.094V312H266.768ZM308.45 312.767C304.479 312.767 301.044 311.923 298.146 310.236C295.266 308.531 293.041 306.162 291.473 303.128C289.905 300.077 289.121 296.54 289.121 292.517C289.121 288.46 289.905 284.915 291.473 281.881C293.041 278.83 295.266 276.46 298.146 274.773C301.044 273.068 304.479 272.216 308.45 272.216C312.422 272.216 315.848 273.068 318.729 274.773C321.626 276.46 323.859 278.83 325.428 281.881C326.996 284.915 327.78 288.46 327.78 292.517C327.78 296.54 326.996 300.077 325.428 303.128C323.859 306.162 321.626 308.531 318.729 310.236C315.848 311.923 312.422 312.767 308.45 312.767ZM308.501 304.33C310.308 304.33 311.817 303.818 313.027 302.795C314.237 301.756 315.149 300.341 315.763 298.551C316.393 296.761 316.709 294.724 316.709 292.44C316.709 290.156 316.393 288.119 315.763 286.33C315.149 284.54 314.237 283.125 313.027 282.085C311.817 281.045 310.308 280.526 308.501 280.526C306.678 280.526 305.143 281.045 303.899 282.085C302.672 283.125 301.743 284.54 301.112 286.33C300.499 288.119 300.192 290.156 300.192 292.44C300.192 294.724 300.499 296.761 301.112 298.551C301.743 300.341 302.672 301.756 303.899 302.795C305.143 303.818 306.678 304.33 308.501 304.33ZM334.862 312V272.727H345.422V279.58H345.831C346.547 277.142 347.749 275.301 349.436 274.057C351.124 272.795 353.067 272.165 355.266 272.165C355.811 272.165 356.399 272.199 357.03 272.267C357.661 272.335 358.214 272.429 358.692 272.548V282.213C358.18 282.06 357.473 281.923 356.57 281.804C355.666 281.685 354.839 281.625 354.089 281.625C352.487 281.625 351.055 281.974 349.794 282.673C348.55 283.355 347.561 284.31 346.828 285.537C346.112 286.764 345.754 288.179 345.754 289.781V312H334.862ZM364.323 312V272.727H374.704V279.656H375.164C375.982 277.355 377.346 275.54 379.255 274.21C381.164 272.881 383.448 272.216 386.107 272.216C388.8 272.216 391.093 272.889 392.985 274.236C394.877 275.565 396.138 277.372 396.769 279.656H397.178C397.979 277.406 399.428 275.608 401.525 274.261C403.638 272.898 406.136 272.216 409.016 272.216C412.681 272.216 415.656 273.384 417.94 275.719C420.241 278.037 421.391 281.327 421.391 285.588V312H410.525V287.736C410.525 285.554 409.945 283.918 408.786 282.827C407.627 281.736 406.178 281.19 404.44 281.19C402.462 281.19 400.92 281.821 399.812 283.082C398.704 284.327 398.15 285.972 398.15 288.017V312H387.59V287.506C387.59 285.58 387.036 284.045 385.928 282.903C384.837 281.761 383.397 281.19 381.607 281.19C380.397 281.19 379.306 281.497 378.335 282.111C377.38 282.707 376.621 283.551 376.059 284.642C375.496 285.716 375.215 286.977 375.215 288.426V312H364.323ZM79.5511 345.636H93.2045L107.625 380.818H108.239L122.659 345.636H136.312V398H125.574V363.918H125.139L111.588 397.744H104.276L90.7244 363.79H90.2898V398H79.5511V345.636ZM162.974 398.767C159.002 398.767 155.567 397.923 152.67 396.236C149.789 394.531 147.565 392.162 145.996 389.128C144.428 386.077 143.644 382.54 143.644 378.517C143.644 374.46 144.428 370.915 145.996 367.881C147.565 364.83 149.789 362.46 152.67 360.773C155.567 359.068 159.002 358.216 162.974 358.216C166.945 358.216 170.371 359.068 173.252 360.773C176.15 362.46 178.383 364.83 179.951 367.881C181.519 370.915 182.303 374.46 182.303 378.517C182.303 382.54 181.519 386.077 179.951 389.128C178.383 392.162 176.15 394.531 173.252 396.236C170.371 397.923 166.945 398.767 162.974 398.767ZM163.025 390.33C164.832 390.33 166.34 389.818 167.55 388.795C168.761 387.756 169.673 386.341 170.286 384.551C170.917 382.761 171.232 380.724 171.232 378.44C171.232 376.156 170.917 374.119 170.286 372.33C169.673 370.54 168.761 369.125 167.55 368.085C166.34 367.045 164.832 366.526 163.025 366.526C161.201 366.526 159.667 367.045 158.423 368.085C157.195 369.125 156.266 370.54 155.636 372.33C155.022 374.119 154.715 376.156 154.715 378.44C154.715 380.724 155.022 382.761 155.636 384.551C156.266 386.341 157.195 387.756 158.423 388.795C159.667 389.818 161.201 390.33 163.025 390.33ZM203.857 398.639C200.874 398.639 198.173 397.872 195.752 396.338C193.349 394.787 191.44 392.511 190.025 389.511C188.627 386.494 187.928 382.795 187.928 378.415C187.928 373.915 188.653 370.173 190.102 367.19C191.55 364.19 193.477 361.949 195.88 360.466C198.3 358.966 200.951 358.216 203.832 358.216C206.031 358.216 207.863 358.591 209.329 359.341C210.812 360.074 212.005 360.994 212.908 362.102C213.829 363.193 214.528 364.267 215.005 365.324H215.337V345.636H226.204V398H215.465V391.71H215.005C214.494 392.801 213.769 393.884 212.832 394.957C211.911 396.014 210.71 396.892 209.227 397.591C207.761 398.29 205.971 398.639 203.857 398.639ZM207.309 389.972C209.065 389.972 210.548 389.494 211.758 388.54C212.985 387.568 213.923 386.213 214.57 384.474C215.235 382.736 215.567 380.699 215.567 378.364C215.567 376.028 215.244 374 214.596 372.278C213.948 370.557 213.011 369.227 211.783 368.29C210.556 367.352 209.065 366.884 207.309 366.884C205.519 366.884 204.011 367.369 202.783 368.341C201.556 369.312 200.627 370.659 199.996 372.381C199.366 374.102 199.05 376.097 199.05 378.364C199.05 380.648 199.366 382.668 199.996 384.423C200.644 386.162 201.573 387.526 202.783 388.514C204.011 389.486 205.519 389.972 207.309 389.972ZM260.344 381.278V358.727H271.236V398H260.778V390.866H260.369C259.483 393.168 258.009 395.017 255.946 396.415C253.901 397.812 251.403 398.511 248.455 398.511C245.83 398.511 243.52 397.915 241.526 396.722C239.531 395.528 237.972 393.832 236.847 391.634C235.739 389.435 235.176 386.801 235.159 383.733V358.727H246.051V381.79C246.068 384.108 246.69 385.94 247.918 387.287C249.145 388.634 250.79 389.307 252.852 389.307C254.165 389.307 255.392 389.009 256.534 388.412C257.676 387.798 258.597 386.895 259.295 385.702C260.011 384.509 260.361 383.034 260.344 381.278ZM290.84 345.636V398H279.948V345.636H290.84ZM317.463 398.767C313.423 398.767 309.946 397.949 307.031 396.312C304.134 394.659 301.901 392.324 300.332 389.307C298.764 386.273 297.98 382.685 297.98 378.543C297.98 374.503 298.764 370.957 300.332 367.906C301.901 364.855 304.108 362.477 306.955 360.773C309.818 359.068 313.176 358.216 317.028 358.216C319.619 358.216 322.031 358.634 324.264 359.469C326.514 360.287 328.474 361.523 330.145 363.176C331.832 364.83 333.145 366.909 334.082 369.415C335.02 371.903 335.489 374.818 335.489 378.159V381.151H302.327V374.401H325.236C325.236 372.832 324.895 371.443 324.213 370.233C323.531 369.023 322.585 368.077 321.375 367.395C320.182 366.696 318.793 366.347 317.207 366.347C315.554 366.347 314.088 366.73 312.81 367.497C311.548 368.247 310.56 369.261 309.844 370.54C309.128 371.801 308.761 373.207 308.744 374.759V381.176C308.744 383.119 309.102 384.798 309.818 386.213C310.551 387.628 311.582 388.719 312.912 389.486C314.241 390.253 315.818 390.636 317.642 390.636C318.852 390.636 319.96 390.466 320.966 390.125C321.972 389.784 322.832 389.273 323.548 388.591C324.264 387.909 324.81 387.074 325.185 386.085L335.259 386.75C334.747 389.17 333.699 391.284 332.114 393.091C330.545 394.881 328.517 396.278 326.028 397.284C323.557 398.273 320.702 398.767 317.463 398.767ZM375.273 369.926L365.301 370.54C365.131 369.687 364.764 368.92 364.202 368.239C363.639 367.54 362.898 366.986 361.977 366.577C361.074 366.151 359.991 365.938 358.73 365.938C357.043 365.938 355.619 366.295 354.46 367.011C353.301 367.71 352.722 368.648 352.722 369.824C352.722 370.761 353.097 371.554 353.847 372.202C354.597 372.849 355.884 373.369 357.707 373.761L364.815 375.193C368.634 375.977 371.48 377.239 373.355 378.977C375.23 380.716 376.168 383 376.168 385.83C376.168 388.403 375.409 390.662 373.892 392.605C372.392 394.548 370.33 396.065 367.705 397.156C365.097 398.23 362.088 398.767 358.679 398.767C353.48 398.767 349.338 397.685 346.253 395.52C343.185 393.338 341.386 390.372 340.858 386.622L351.571 386.06C351.895 387.645 352.679 388.855 353.923 389.69C355.168 390.509 356.761 390.918 358.705 390.918C360.614 390.918 362.148 390.551 363.307 389.818C364.483 389.068 365.08 388.105 365.097 386.929C365.08 385.94 364.662 385.131 363.844 384.5C363.026 383.852 361.764 383.358 360.06 383.017L353.259 381.662C349.423 380.895 346.568 379.565 344.693 377.673C342.835 375.781 341.906 373.369 341.906 370.438C341.906 367.915 342.588 365.741 343.952 363.918C345.332 362.094 347.267 360.688 349.756 359.699C352.261 358.71 355.193 358.216 358.551 358.216C363.511 358.216 367.415 359.264 370.261 361.361C373.125 363.457 374.795 366.312 375.273 369.926Z" fill="#1E1C1B"/>
<path d="M77.5568 433.727H81.8182L89.2273 451.818H89.5L96.9091 433.727H101.17V457H97.8295V440.159H97.6136L90.75 456.966H87.9773L81.1136 440.148H80.8977V457H77.5568V433.727ZM111.082 457.386C109.976 457.386 108.976 457.182 108.082 456.773C107.188 456.356 106.48 455.754 105.957 454.966C105.442 454.178 105.185 453.212 105.185 452.068C105.185 451.083 105.374 450.273 105.753 449.636C106.132 449 106.643 448.496 107.287 448.125C107.931 447.754 108.651 447.473 109.446 447.284C110.241 447.095 111.052 446.951 111.878 446.852C112.923 446.731 113.772 446.633 114.423 446.557C115.075 446.473 115.548 446.341 115.844 446.159C116.139 445.977 116.287 445.682 116.287 445.273V445.193C116.287 444.201 116.007 443.432 115.446 442.886C114.893 442.341 114.067 442.068 112.969 442.068C111.825 442.068 110.923 442.322 110.264 442.83C109.613 443.33 109.162 443.886 108.912 444.5L105.719 443.773C106.098 442.712 106.651 441.856 107.378 441.205C108.113 440.545 108.957 440.068 109.912 439.773C110.866 439.47 111.87 439.318 112.923 439.318C113.62 439.318 114.359 439.402 115.139 439.568C115.927 439.727 116.662 440.023 117.344 440.455C118.033 440.886 118.598 441.504 119.037 442.307C119.476 443.102 119.696 444.136 119.696 445.409V457H116.378V454.614H116.241C116.022 455.053 115.692 455.485 115.253 455.909C114.813 456.333 114.249 456.686 113.56 456.966C112.87 457.246 112.045 457.386 111.082 457.386ZM111.821 454.659C112.76 454.659 113.563 454.473 114.23 454.102C114.904 453.731 115.416 453.246 115.764 452.648C116.12 452.042 116.298 451.394 116.298 450.705V448.455C116.177 448.576 115.942 448.689 115.594 448.795C115.253 448.894 114.863 448.981 114.423 449.057C113.984 449.125 113.556 449.189 113.139 449.25C112.723 449.303 112.374 449.348 112.094 449.386C111.435 449.47 110.832 449.61 110.287 449.807C109.749 450.004 109.317 450.288 108.991 450.659C108.673 451.023 108.514 451.508 108.514 452.114C108.514 452.955 108.825 453.591 109.446 454.023C110.067 454.447 110.859 454.659 111.821 454.659ZM130.756 457.341C129.347 457.341 128.089 456.981 126.983 456.261C125.884 455.534 125.021 454.5 124.392 453.159C123.771 451.811 123.46 450.193 123.46 448.307C123.46 446.42 123.775 444.807 124.403 443.466C125.04 442.125 125.911 441.098 127.017 440.386C128.123 439.674 129.377 439.318 130.778 439.318C131.862 439.318 132.733 439.5 133.392 439.864C134.059 440.22 134.574 440.636 134.938 441.114C135.309 441.591 135.597 442.011 135.801 442.375H136.006V433.727H139.403V457H136.085V454.284H135.801C135.597 454.655 135.301 455.08 134.915 455.557C134.536 456.034 134.013 456.451 133.347 456.807C132.68 457.163 131.816 457.341 130.756 457.341ZM131.506 454.443C132.483 454.443 133.309 454.186 133.983 453.67C134.665 453.148 135.18 452.424 135.528 451.5C135.884 450.576 136.062 449.5 136.062 448.273C136.062 447.061 135.888 446 135.54 445.091C135.191 444.182 134.68 443.473 134.006 442.966C133.331 442.458 132.498 442.205 131.506 442.205C130.483 442.205 129.631 442.47 128.949 443C128.267 443.53 127.752 444.254 127.403 445.17C127.063 446.087 126.892 447.121 126.892 448.273C126.892 449.439 127.066 450.489 127.415 451.42C127.763 452.352 128.278 453.091 128.96 453.636C129.65 454.174 130.498 454.443 131.506 454.443ZM151.776 457.352C150.056 457.352 148.575 456.985 147.332 456.25C146.098 455.508 145.143 454.466 144.469 453.125C143.802 451.777 143.469 450.197 143.469 448.386C143.469 446.598 143.802 445.023 144.469 443.659C145.143 442.295 146.082 441.231 147.287 440.466C148.499 439.701 149.916 439.318 151.537 439.318C152.522 439.318 153.476 439.481 154.401 439.807C155.325 440.133 156.154 440.644 156.889 441.341C157.624 442.038 158.204 442.943 158.628 444.057C159.052 445.163 159.264 446.508 159.264 448.091V449.295H145.389V446.75H155.935C155.935 445.856 155.753 445.064 155.389 444.375C155.026 443.678 154.514 443.129 153.855 442.727C153.204 442.326 152.438 442.125 151.56 442.125C150.605 442.125 149.772 442.36 149.06 442.83C148.355 443.292 147.81 443.898 147.423 444.648C147.045 445.39 146.855 446.197 146.855 447.068V449.057C146.855 450.223 147.06 451.216 147.469 452.034C147.885 452.852 148.465 453.477 149.207 453.909C149.95 454.333 150.817 454.545 151.81 454.545C152.454 454.545 153.041 454.455 153.571 454.273C154.101 454.083 154.56 453.803 154.946 453.432C155.332 453.061 155.628 452.602 155.832 452.057L159.048 452.636C158.791 453.583 158.329 454.413 157.662 455.125C157.003 455.83 156.173 456.379 155.173 456.773C154.181 457.159 153.048 457.352 151.776 457.352ZM179.651 439.545V442.273H170.116V439.545H179.651ZM172.673 435.364H176.071V451.875C176.071 452.534 176.17 453.03 176.366 453.364C176.563 453.689 176.817 453.913 177.128 454.034C177.446 454.148 177.791 454.205 178.162 454.205C178.435 454.205 178.673 454.186 178.878 454.148C179.082 454.11 179.241 454.08 179.355 454.057L179.969 456.864C179.772 456.939 179.491 457.015 179.128 457.091C178.764 457.174 178.31 457.22 177.764 457.227C176.87 457.242 176.037 457.083 175.264 456.75C174.491 456.417 173.866 455.902 173.389 455.205C172.912 454.508 172.673 453.633 172.673 452.58V435.364ZM190.574 457.352C188.938 457.352 187.509 456.977 186.29 456.227C185.07 455.477 184.123 454.428 183.449 453.08C182.775 451.731 182.438 450.155 182.438 448.352C182.438 446.542 182.775 444.958 183.449 443.602C184.123 442.246 185.07 441.193 186.29 440.443C187.509 439.693 188.938 439.318 190.574 439.318C192.21 439.318 193.638 439.693 194.858 440.443C196.078 441.193 197.025 442.246 197.699 443.602C198.373 444.958 198.71 446.542 198.71 448.352C198.71 450.155 198.373 451.731 197.699 453.08C197.025 454.428 196.078 455.477 194.858 456.227C193.638 456.977 192.21 457.352 190.574 457.352ZM190.585 454.5C191.646 454.5 192.525 454.22 193.222 453.659C193.919 453.098 194.434 452.352 194.767 451.42C195.108 450.489 195.278 449.462 195.278 448.341C195.278 447.227 195.108 446.205 194.767 445.273C194.434 444.333 193.919 443.58 193.222 443.011C192.525 442.443 191.646 442.159 190.585 442.159C189.517 442.159 188.631 442.443 187.926 443.011C187.229 443.58 186.71 444.333 186.369 445.273C186.036 446.205 185.869 447.227 185.869 448.341C185.869 449.462 186.036 450.489 186.369 451.42C186.71 452.352 187.229 453.098 187.926 453.659C188.631 454.22 189.517 454.5 190.585 454.5ZM218.324 457.352C216.634 457.352 215.18 456.97 213.96 456.205C212.748 455.432 211.816 454.367 211.165 453.011C210.513 451.655 210.188 450.102 210.188 448.352C210.188 446.58 210.521 445.015 211.188 443.659C211.854 442.295 212.794 441.231 214.006 440.466C215.218 439.701 216.646 439.318 218.29 439.318C219.616 439.318 220.797 439.564 221.835 440.057C222.873 440.542 223.71 441.223 224.347 442.102C224.991 442.981 225.373 444.008 225.494 445.182H222.188C222.006 444.364 221.589 443.659 220.938 443.068C220.294 442.477 219.43 442.182 218.347 442.182C217.4 442.182 216.57 442.432 215.858 442.932C215.153 443.424 214.604 444.129 214.21 445.045C213.816 445.955 213.619 447.03 213.619 448.273C213.619 449.545 213.813 450.644 214.199 451.568C214.585 452.492 215.131 453.208 215.835 453.716C216.547 454.223 217.384 454.477 218.347 454.477C218.991 454.477 219.574 454.36 220.097 454.125C220.627 453.883 221.07 453.538 221.426 453.091C221.79 452.644 222.044 452.106 222.188 451.477H225.494C225.373 452.606 225.006 453.614 224.392 454.5C223.778 455.386 222.956 456.083 221.926 456.591C220.903 457.098 219.703 457.352 218.324 457.352ZM236.48 457.352C234.844 457.352 233.416 456.977 232.196 456.227C230.976 455.477 230.029 454.428 229.355 453.08C228.681 451.731 228.344 450.155 228.344 448.352C228.344 446.542 228.681 444.958 229.355 443.602C230.029 442.246 230.976 441.193 232.196 440.443C233.416 439.693 234.844 439.318 236.48 439.318C238.116 439.318 239.545 439.693 240.764 440.443C241.984 441.193 242.931 442.246 243.605 443.602C244.279 444.958 244.616 446.542 244.616 448.352C244.616 450.155 244.279 451.731 243.605 453.08C242.931 454.428 241.984 455.477 240.764 456.227C239.545 456.977 238.116 457.352 236.48 457.352ZM236.491 454.5C237.552 454.5 238.431 454.22 239.128 453.659C239.825 453.098 240.34 452.352 240.673 451.42C241.014 450.489 241.185 449.462 241.185 448.341C241.185 447.227 241.014 446.205 240.673 445.273C240.34 444.333 239.825 443.58 239.128 443.011C238.431 442.443 237.552 442.159 236.491 442.159C235.423 442.159 234.537 442.443 233.832 443.011C233.135 443.58 232.616 444.333 232.276 445.273C231.942 446.205 231.776 447.227 231.776 448.341C231.776 449.462 231.942 450.489 232.276 451.42C232.616 452.352 233.135 453.098 233.832 453.659C234.537 454.22 235.423 454.5 236.491 454.5ZM248.409 463.545V439.545H251.727V442.375H252.011C252.208 442.011 252.492 441.591 252.864 441.114C253.235 440.636 253.75 440.22 254.409 439.864C255.068 439.5 255.939 439.318 257.023 439.318C258.432 439.318 259.689 439.674 260.795 440.386C261.902 441.098 262.769 442.125 263.398 443.466C264.034 444.807 264.352 446.42 264.352 448.307C264.352 450.193 264.038 451.811 263.409 453.159C262.78 454.5 261.917 455.534 260.818 456.261C259.72 456.981 258.466 457.341 257.057 457.341C255.996 457.341 255.129 457.163 254.455 456.807C253.788 456.451 253.265 456.034 252.886 455.557C252.508 455.08 252.216 454.655 252.011 454.284H251.807V463.545H248.409ZM251.739 448.273C251.739 449.5 251.917 450.576 252.273 451.5C252.629 452.424 253.144 453.148 253.818 453.67C254.492 454.186 255.318 454.443 256.295 454.443C257.311 454.443 258.159 454.174 258.841 453.636C259.523 453.091 260.038 452.352 260.386 451.42C260.742 450.489 260.92 449.439 260.92 448.273C260.92 447.121 260.746 446.087 260.398 445.17C260.057 444.254 259.542 443.53 258.852 443C258.17 442.47 257.318 442.205 256.295 442.205C255.311 442.205 254.477 442.458 253.795 442.966C253.121 443.473 252.61 444.182 252.261 445.091C251.913 446 251.739 447.061 251.739 448.273ZM269.713 463.545C269.205 463.545 268.743 463.504 268.327 463.42C267.91 463.345 267.599 463.261 267.395 463.17L268.213 460.386C268.834 460.553 269.387 460.625 269.872 460.602C270.357 460.58 270.785 460.398 271.156 460.057C271.535 459.716 271.868 459.159 272.156 458.386L272.577 457.227L266.19 439.545H269.827L274.247 453.091H274.429L278.849 439.545H282.497L275.304 459.33C274.971 460.239 274.546 461.008 274.031 461.636C273.516 462.273 272.902 462.75 272.19 463.068C271.478 463.386 270.652 463.545 269.713 463.545ZM299.239 457.386C298.133 457.386 297.133 457.182 296.239 456.773C295.345 456.356 294.636 455.754 294.114 454.966C293.598 454.178 293.341 453.212 293.341 452.068C293.341 451.083 293.53 450.273 293.909 449.636C294.288 449 294.799 448.496 295.443 448.125C296.087 447.754 296.807 447.473 297.602 447.284C298.398 447.095 299.208 446.951 300.034 446.852C301.08 446.731 301.928 446.633 302.58 446.557C303.231 446.473 303.705 446.341 304 446.159C304.295 445.977 304.443 445.682 304.443 445.273V445.193C304.443 444.201 304.163 443.432 303.602 442.886C303.049 442.341 302.223 442.068 301.125 442.068C299.981 442.068 299.08 442.322 298.42 442.83C297.769 443.33 297.318 443.886 297.068 444.5L293.875 443.773C294.254 442.712 294.807 441.856 295.534 441.205C296.269 440.545 297.114 440.068 298.068 439.773C299.023 439.47 300.027 439.318 301.08 439.318C301.777 439.318 302.515 439.402 303.295 439.568C304.083 439.727 304.818 440.023 305.5 440.455C306.189 440.886 306.754 441.504 307.193 442.307C307.633 443.102 307.852 444.136 307.852 445.409V457H304.534V454.614H304.398C304.178 455.053 303.848 455.485 303.409 455.909C302.97 456.333 302.405 456.686 301.716 456.966C301.027 457.246 300.201 457.386 299.239 457.386ZM299.977 454.659C300.917 454.659 301.72 454.473 302.386 454.102C303.061 453.731 303.572 453.246 303.92 452.648C304.277 452.042 304.455 451.394 304.455 450.705V448.455C304.333 448.576 304.098 448.689 303.75 448.795C303.409 448.894 303.019 448.981 302.58 449.057C302.14 449.125 301.712 449.189 301.295 449.25C300.879 449.303 300.53 449.348 300.25 449.386C299.591 449.47 298.989 449.61 298.443 449.807C297.905 450.004 297.473 450.288 297.148 450.659C296.83 451.023 296.67 451.508 296.67 452.114C296.67 452.955 296.981 453.591 297.602 454.023C298.223 454.447 299.015 454.659 299.977 454.659ZM315.776 446.636V457H312.378V439.545H315.639V442.386H315.855C316.257 441.462 316.885 440.72 317.741 440.159C318.605 439.598 319.692 439.318 321.003 439.318C322.192 439.318 323.234 439.568 324.128 440.068C325.022 440.561 325.715 441.295 326.207 442.273C326.7 443.25 326.946 444.458 326.946 445.898V457H323.548V446.307C323.548 445.042 323.219 444.053 322.56 443.341C321.901 442.621 320.995 442.261 319.844 442.261C319.056 442.261 318.355 442.432 317.741 442.773C317.135 443.114 316.654 443.614 316.298 444.273C315.95 444.924 315.776 445.712 315.776 446.636ZM338.037 457.341C336.628 457.341 335.37 456.981 334.264 456.261C333.166 455.534 332.302 454.5 331.673 453.159C331.052 451.811 330.741 450.193 330.741 448.307C330.741 446.42 331.056 444.807 331.685 443.466C332.321 442.125 333.192 441.098 334.298 440.386C335.404 439.674 336.658 439.318 338.06 439.318C339.143 439.318 340.014 439.5 340.673 439.864C341.34 440.22 341.855 440.636 342.219 441.114C342.59 441.591 342.878 442.011 343.082 442.375H343.287V433.727H346.685V457H343.366V454.284H343.082C342.878 454.655 342.582 455.08 342.196 455.557C341.817 456.034 341.295 456.451 340.628 456.807C339.961 457.163 339.098 457.341 338.037 457.341ZM338.787 454.443C339.764 454.443 340.59 454.186 341.264 453.67C341.946 453.148 342.461 452.424 342.81 451.5C343.166 450.576 343.344 449.5 343.344 448.273C343.344 447.061 343.17 446 342.821 445.091C342.473 444.182 341.961 443.473 341.287 442.966C340.613 442.458 339.779 442.205 338.787 442.205C337.764 442.205 336.912 442.47 336.23 443C335.548 443.53 335.033 444.254 334.685 445.17C334.344 446.087 334.173 447.121 334.173 448.273C334.173 449.439 334.348 450.489 334.696 451.42C335.045 452.352 335.56 453.091 336.241 453.636C336.931 454.174 337.779 454.443 338.787 454.443ZM360.003 463.545V439.545H363.321V442.375H363.605C363.802 442.011 364.086 441.591 364.457 441.114C364.829 440.636 365.344 440.22 366.003 439.864C366.662 439.5 367.533 439.318 368.616 439.318C370.026 439.318 371.283 439.674 372.389 440.386C373.495 441.098 374.363 442.125 374.991 443.466C375.628 444.807 375.946 446.42 375.946 448.307C375.946 450.193 375.632 451.811 375.003 453.159C374.374 454.5 373.51 455.534 372.412 456.261C371.313 456.981 370.06 457.341 368.651 457.341C367.59 457.341 366.723 457.163 366.048 456.807C365.382 456.451 364.859 456.034 364.48 455.557C364.101 455.08 363.81 454.655 363.605 454.284H363.401V463.545H360.003ZM363.332 448.273C363.332 449.5 363.51 450.576 363.866 451.5C364.223 452.424 364.738 453.148 365.412 453.67C366.086 454.186 366.912 454.443 367.889 454.443C368.904 454.443 369.753 454.174 370.435 453.636C371.116 453.091 371.632 452.352 371.98 451.42C372.336 450.489 372.514 449.439 372.514 448.273C372.514 447.121 372.34 446.087 371.991 445.17C371.651 444.254 371.135 443.53 370.446 443C369.764 442.47 368.912 442.205 367.889 442.205C366.904 442.205 366.071 442.458 365.389 442.966C364.715 443.473 364.204 444.182 363.855 445.091C363.507 446 363.332 447.061 363.332 448.273ZM384.832 457.386C383.726 457.386 382.726 457.182 381.832 456.773C380.938 456.356 380.23 455.754 379.707 454.966C379.192 454.178 378.935 453.212 378.935 452.068C378.935 451.083 379.124 450.273 379.503 449.636C379.882 449 380.393 448.496 381.037 448.125C381.681 447.754 382.401 447.473 383.196 447.284C383.991 447.095 384.802 446.951 385.628 446.852C386.673 446.731 387.522 446.633 388.173 446.557C388.825 446.473 389.298 446.341 389.594 446.159C389.889 445.977 390.037 445.682 390.037 445.273V445.193C390.037 444.201 389.757 443.432 389.196 442.886C388.643 442.341 387.817 442.068 386.719 442.068C385.575 442.068 384.673 442.322 384.014 442.83C383.363 443.33 382.912 443.886 382.662 444.5L379.469 443.773C379.848 442.712 380.401 441.856 381.128 441.205C381.863 440.545 382.707 440.068 383.662 439.773C384.616 439.47 385.62 439.318 386.673 439.318C387.37 439.318 388.109 439.402 388.889 439.568C389.677 439.727 390.412 440.023 391.094 440.455C391.783 440.886 392.348 441.504 392.787 442.307C393.226 443.102 393.446 444.136 393.446 445.409V457H390.128V454.614H389.991C389.772 455.053 389.442 455.485 389.003 455.909C388.563 456.333 387.999 456.686 387.31 456.966C386.62 457.246 385.795 457.386 384.832 457.386ZM385.571 454.659C386.51 454.659 387.313 454.473 387.98 454.102C388.654 453.731 389.166 453.246 389.514 452.648C389.87 452.042 390.048 451.394 390.048 450.705V448.455C389.927 448.576 389.692 448.689 389.344 448.795C389.003 448.894 388.613 448.981 388.173 449.057C387.734 449.125 387.306 449.189 386.889 449.25C386.473 449.303 386.124 449.348 385.844 449.386C385.185 449.47 384.582 449.61 384.037 449.807C383.499 450.004 383.067 450.288 382.741 450.659C382.423 451.023 382.264 451.508 382.264 452.114C382.264 452.955 382.575 453.591 383.196 454.023C383.817 454.447 384.609 454.659 385.571 454.659ZM411.051 443.807L407.972 444.352C407.843 443.958 407.638 443.583 407.358 443.227C407.085 442.871 406.714 442.58 406.244 442.352C405.775 442.125 405.188 442.011 404.483 442.011C403.521 442.011 402.718 442.227 402.074 442.659C401.43 443.083 401.108 443.633 401.108 444.307C401.108 444.89 401.324 445.36 401.756 445.716C402.188 446.072 402.884 446.364 403.847 446.591L406.619 447.227C408.225 447.598 409.422 448.17 410.21 448.943C410.998 449.716 411.392 450.72 411.392 451.955C411.392 453 411.089 453.932 410.483 454.75C409.884 455.561 409.047 456.197 407.972 456.659C406.903 457.121 405.665 457.352 404.256 457.352C402.301 457.352 400.706 456.936 399.472 456.102C398.237 455.261 397.479 454.068 397.199 452.523L400.483 452.023C400.688 452.879 401.108 453.527 401.744 453.966C402.381 454.398 403.21 454.614 404.233 454.614C405.347 454.614 406.237 454.383 406.903 453.92C407.57 453.451 407.903 452.879 407.903 452.205C407.903 451.659 407.699 451.201 407.29 450.83C406.888 450.458 406.271 450.178 405.438 449.989L402.483 449.341C400.854 448.97 399.65 448.379 398.869 447.568C398.097 446.758 397.71 445.731 397.71 444.489C397.71 443.458 397.998 442.557 398.574 441.784C399.15 441.011 399.945 440.409 400.96 439.977C401.975 439.538 403.138 439.318 404.449 439.318C406.335 439.318 407.82 439.727 408.903 440.545C409.987 441.356 410.703 442.443 411.051 443.807ZM423.276 439.545V442.273H413.741V439.545H423.276ZM416.298 435.364H419.696V451.875C419.696 452.534 419.795 453.03 419.991 453.364C420.188 453.689 420.442 453.913 420.753 454.034C421.071 454.148 421.416 454.205 421.787 454.205C422.06 454.205 422.298 454.186 422.503 454.148C422.707 454.11 422.866 454.08 422.98 454.057L423.594 456.864C423.397 456.939 423.116 457.015 422.753 457.091C422.389 457.174 421.935 457.22 421.389 457.227C420.495 457.242 419.662 457.083 418.889 456.75C418.116 456.417 417.491 455.902 417.014 455.205C416.537 454.508 416.298 453.633 416.298 452.58V435.364ZM434.369 457.352C432.65 457.352 431.169 456.985 429.926 456.25C428.691 455.508 427.737 454.466 427.062 453.125C426.396 451.777 426.062 450.197 426.062 448.386C426.062 446.598 426.396 445.023 427.062 443.659C427.737 442.295 428.676 441.231 429.881 440.466C431.093 439.701 432.509 439.318 434.131 439.318C435.116 439.318 436.07 439.481 436.994 439.807C437.919 440.133 438.748 440.644 439.483 441.341C440.218 442.038 440.797 442.943 441.222 444.057C441.646 445.163 441.858 446.508 441.858 448.091V449.295H427.983V446.75H438.528C438.528 445.856 438.347 445.064 437.983 444.375C437.619 443.678 437.108 443.129 436.449 442.727C435.797 442.326 435.032 442.125 434.153 442.125C433.199 442.125 432.366 442.36 431.653 442.83C430.949 443.292 430.403 443.898 430.017 444.648C429.638 445.39 429.449 446.197 429.449 447.068V449.057C429.449 450.223 429.653 451.216 430.062 452.034C430.479 452.852 431.059 453.477 431.801 453.909C432.544 454.333 433.411 454.545 434.403 454.545C435.047 454.545 435.634 454.455 436.165 454.273C436.695 454.083 437.153 453.803 437.54 453.432C437.926 453.061 438.222 452.602 438.426 452.057L441.642 452.636C441.384 453.583 440.922 454.413 440.256 455.125C439.597 455.83 438.767 456.379 437.767 456.773C436.775 457.159 435.642 457.352 434.369 457.352Z" fill="#464443"/>
<path d="M995 455H825C799.037 454.993 773.588 447.767 751.496 434.129C729.403 420.491 711.538 400.979 699.897 377.772C688.256 354.566 683.298 328.579 685.576 302.716C687.854 276.854 697.279 252.134 712.797 231.32C728.315 210.505 749.316 194.416 773.452 184.85C797.588 175.284 823.909 172.617 849.473 177.149C875.037 181.681 898.838 193.232 918.215 210.512C937.592 227.792 951.782 250.12 959.2 275H995C1018.87 275 1041.76 284.482 1058.64 301.36C1075.52 318.239 1085 341.131 1085 365C1085 388.87 1075.52 411.761 1058.64 428.64C1041.76 445.518 1018.87 455 995 455Z" stroke="#FFC799" stroke-width="40" stroke-linecap="round" stroke-linejoin="round"/>
</svg>
