<svg width="1200" height="500" viewBox="0 0 1200 500" fill="none" xmlns="http://www.w3.org/2000/svg">
<rect width="1200" height="500" rx="24" fill="#100E0C"/>
<path d="M107.957 123.696C107.753 121.634 106.875 120.031 105.324 118.889C103.773 117.747 101.668 117.176 99.0085 117.176C97.2017 117.176 95.6761 117.432 94.4318 117.943C93.1875 118.438 92.233 119.128 91.5682 120.014C90.9205 120.901 90.5966 121.906 90.5966 123.031C90.5625 123.969 90.7585 124.787 91.1847 125.486C91.6278 126.185 92.233 126.79 93 127.301C93.767 127.795 94.6534 128.23 95.6591 128.605C96.6648 128.963 97.7386 129.27 98.8807 129.526L103.585 130.651C105.869 131.162 107.966 131.844 109.875 132.696C111.784 133.548 113.438 134.597 114.835 135.841C116.233 137.085 117.315 138.551 118.082 140.239C118.866 141.926 119.267 143.861 119.284 146.043C119.267 149.247 118.449 152.026 116.83 154.378C115.227 156.713 112.909 158.528 109.875 159.824C106.858 161.102 103.219 161.741 98.9574 161.741C94.7301 161.741 91.0483 161.094 87.9119 159.798C84.7926 158.503 82.3551 156.585 80.5994 154.045C78.8608 151.489 77.9489 148.327 77.8636 144.56H88.5767C88.696 146.315 89.1989 147.781 90.0852 148.957C90.9886 150.116 92.1903 150.994 93.6903 151.591C95.2074 152.17 96.9205 152.46 98.8295 152.46C100.705 152.46 102.332 152.187 103.713 151.642C105.111 151.097 106.193 150.338 106.96 149.366C107.727 148.395 108.111 147.278 108.111 146.017C108.111 144.841 107.761 143.852 107.062 143.051C106.381 142.25 105.375 141.568 104.045 141.006C102.733 140.443 101.122 139.932 99.2131 139.472L93.5114 138.04C89.0966 136.966 85.6108 135.287 83.054 133.003C80.4972 130.719 79.2273 127.642 79.2443 123.773C79.2273 120.602 80.071 117.832 81.7756 115.463C83.4972 113.094 85.858 111.244 88.858 109.915C91.858 108.585 95.267 107.92 99.0852 107.92C102.972 107.92 106.364 108.585 109.261 109.915C112.176 111.244 114.443 113.094 116.062 115.463C117.682 117.832 118.517 120.577 118.568 123.696H107.957ZM126.526 161V121.727H137.418V161H126.526ZM131.998 116.665C130.379 116.665 128.989 116.128 127.83 115.054C126.688 113.963 126.117 112.659 126.117 111.142C126.117 109.642 126.688 108.355 127.83 107.281C128.989 106.19 130.379 105.645 131.998 105.645C133.617 105.645 134.998 106.19 136.14 107.281C137.299 108.355 137.879 109.642 137.879 111.142C137.879 112.659 137.299 113.963 136.14 115.054C134.998 116.128 133.617 116.665 131.998 116.665ZM146.143 161V121.727H156.524V128.656H156.984C157.803 126.355 159.166 124.54 161.075 123.21C162.984 121.881 165.268 121.216 167.928 121.216C170.621 121.216 172.913 121.889 174.805 123.236C176.697 124.565 177.959 126.372 178.589 128.656H178.999C179.8 126.406 181.249 124.608 183.345 123.261C185.459 121.898 187.956 121.216 190.837 121.216C194.501 121.216 197.476 122.384 199.76 124.719C202.061 127.037 203.212 130.327 203.212 134.588V161H192.345V136.736C192.345 134.554 191.766 132.918 190.607 131.827C189.447 130.736 187.999 130.19 186.26 130.19C184.283 130.19 182.74 130.821 181.632 132.082C180.524 133.327 179.97 134.972 179.97 137.017V161H169.411V136.506C169.411 134.58 168.857 133.045 167.749 131.903C166.658 130.761 165.217 130.19 163.428 130.19C162.217 130.19 161.126 130.497 160.155 131.111C159.2 131.707 158.442 132.551 157.879 133.642C157.317 134.716 157.036 135.977 157.036 137.426V161H146.143ZM211.815 175.727V121.727H222.554V128.324H223.04C223.517 127.267 224.207 126.193 225.111 125.102C226.031 123.994 227.224 123.074 228.69 122.341C230.173 121.591 232.014 121.216 234.213 121.216C237.077 121.216 239.719 121.966 242.139 123.466C244.56 124.949 246.494 127.19 247.943 130.19C249.392 133.173 250.116 136.915 250.116 141.415C250.116 145.795 249.409 149.494 247.994 152.511C246.597 155.511 244.688 157.787 242.267 159.338C239.864 160.872 237.17 161.639 234.188 161.639C232.074 161.639 230.276 161.29 228.793 160.591C227.327 159.892 226.125 159.014 225.188 157.957C224.25 156.884 223.534 155.801 223.04 154.71H222.707V175.727H211.815ZM222.477 141.364C222.477 143.699 222.801 145.736 223.449 147.474C224.097 149.213 225.034 150.568 226.261 151.54C227.489 152.494 228.98 152.972 230.736 152.972C232.509 152.972 234.009 152.486 235.236 151.514C236.463 150.526 237.392 149.162 238.023 147.423C238.67 145.668 238.994 143.648 238.994 141.364C238.994 139.097 238.679 137.102 238.048 135.381C237.418 133.659 236.489 132.312 235.261 131.341C234.034 130.369 232.526 129.884 230.736 129.884C228.963 129.884 227.463 130.352 226.236 131.29C225.026 132.227 224.097 133.557 223.449 135.278C222.801 137 222.477 139.028 222.477 141.364ZM268.27 108.636V161H257.378V108.636H268.27ZM294.893 161.767C290.853 161.767 287.376 160.949 284.461 159.312C281.563 157.659 279.33 155.324 277.762 152.307C276.194 149.273 275.41 145.685 275.41 141.543C275.41 137.503 276.194 133.957 277.762 130.906C279.33 127.855 281.538 125.477 284.384 123.773C287.248 122.068 290.606 121.216 294.458 121.216C297.049 121.216 299.461 121.634 301.694 122.469C303.944 123.287 305.904 124.523 307.575 126.176C309.262 127.83 310.575 129.909 311.512 132.415C312.45 134.903 312.918 137.818 312.918 141.159V144.151H279.756V137.401H302.665C302.665 135.832 302.325 134.443 301.643 133.233C300.961 132.023 300.015 131.077 298.805 130.395C297.612 129.696 296.222 129.347 294.637 129.347C292.984 129.347 291.518 129.73 290.239 130.497C288.978 131.247 287.989 132.261 287.273 133.54C286.558 134.801 286.191 136.207 286.174 137.759V144.176C286.174 146.119 286.532 147.798 287.248 149.213C287.981 150.628 289.012 151.719 290.342 152.486C291.671 153.253 293.248 153.636 295.072 153.636C296.282 153.636 297.39 153.466 298.396 153.125C299.401 152.784 300.262 152.273 300.978 151.591C301.694 150.909 302.239 150.074 302.614 149.085L312.688 149.75C312.177 152.17 311.129 154.284 309.543 156.091C307.975 157.881 305.947 159.278 303.458 160.284C300.987 161.273 298.131 161.767 294.893 161.767ZM344.495 135.176V143.818H320.614V135.176H344.495ZM374.665 121.727V129.909H351.015V121.727H374.665ZM356.384 112.318H367.276V148.932C367.276 149.937 367.43 150.722 367.737 151.284C368.043 151.83 368.469 152.213 369.015 152.435C369.577 152.656 370.225 152.767 370.958 152.767C371.469 152.767 371.981 152.724 372.492 152.639C373.004 152.537 373.396 152.46 373.668 152.409L375.381 160.514C374.836 160.685 374.069 160.881 373.08 161.102C372.092 161.341 370.89 161.486 369.475 161.537C366.85 161.639 364.549 161.29 362.572 160.489C360.612 159.687 359.086 158.443 357.995 156.756C356.904 155.068 356.367 152.937 356.384 150.364V112.318ZM399.083 161.767C395.112 161.767 391.677 160.923 388.779 159.236C385.898 157.531 383.674 155.162 382.106 152.128C380.538 149.077 379.754 145.54 379.754 141.517C379.754 137.46 380.538 133.915 382.106 130.881C383.674 127.83 385.898 125.46 388.779 123.773C391.677 122.068 395.112 121.216 399.083 121.216C403.055 121.216 406.481 122.068 409.362 123.773C412.259 125.46 414.492 127.83 416.06 130.881C417.629 133.915 418.413 137.46 418.413 141.517C418.413 145.54 417.629 149.077 416.06 152.128C414.492 155.162 412.259 157.531 409.362 159.236C406.481 160.923 403.055 161.767 399.083 161.767ZM399.134 153.33C400.941 153.33 402.45 152.818 403.66 151.795C404.87 150.756 405.782 149.341 406.396 147.551C407.026 145.761 407.342 143.724 407.342 141.44C407.342 139.156 407.026 137.119 406.396 135.33C405.782 133.54 404.87 132.125 403.66 131.085C402.45 130.045 400.941 129.526 399.134 129.526C397.31 129.526 395.776 130.045 394.532 131.085C393.305 132.125 392.376 133.54 391.745 135.33C391.131 137.119 390.825 139.156 390.825 141.44C390.825 143.724 391.131 145.761 391.745 147.551C392.376 149.341 393.305 150.756 394.532 151.795C395.776 152.818 397.31 153.33 399.134 153.33ZM449.964 135.176V143.818H426.083V135.176H449.964ZM491.793 108.636H502.864V142.642C502.864 146.46 501.952 149.801 500.129 152.665C498.322 155.528 495.79 157.761 492.535 159.364C489.279 160.949 485.487 161.741 481.157 161.741C476.81 161.741 473.009 160.949 469.754 159.364C466.498 157.761 463.967 155.528 462.16 152.665C460.353 149.801 459.45 146.46 459.45 142.642V108.636H470.521V141.696C470.521 143.69 470.955 145.463 471.825 147.014C472.711 148.565 473.955 149.784 475.558 150.67C477.16 151.557 479.026 152 481.157 152C483.305 152 485.171 151.557 486.756 150.67C488.359 149.784 489.594 148.565 490.464 147.014C491.35 145.463 491.793 143.69 491.793 141.696V108.636ZM544.445 132.926L534.473 133.54C534.303 132.687 533.936 131.92 533.374 131.239C532.811 130.54 532.07 129.986 531.149 129.577C530.246 129.151 529.163 128.938 527.902 128.938C526.214 128.938 524.791 129.295 523.632 130.011C522.473 130.71 521.893 131.648 521.893 132.824C521.893 133.761 522.268 134.554 523.018 135.202C523.768 135.849 525.055 136.369 526.879 136.761L533.987 138.193C537.805 138.977 540.652 140.239 542.527 141.977C544.402 143.716 545.339 146 545.339 148.83C545.339 151.403 544.581 153.662 543.064 155.605C541.564 157.548 539.501 159.065 536.876 160.156C534.268 161.23 531.26 161.767 527.851 161.767C522.652 161.767 518.51 160.685 515.425 158.52C512.357 156.338 510.558 153.372 510.03 149.622L520.743 149.06C521.067 150.645 521.851 151.855 523.095 152.69C524.339 153.509 525.933 153.918 527.876 153.918C529.786 153.918 531.32 153.551 532.479 152.818C533.655 152.068 534.251 151.105 534.268 149.929C534.251 148.94 533.834 148.131 533.016 147.5C532.197 146.852 530.936 146.358 529.232 146.017L522.43 144.662C518.595 143.895 515.74 142.565 513.865 140.673C512.007 138.781 511.078 136.369 511.078 133.438C511.078 130.915 511.76 128.741 513.124 126.918C514.504 125.094 516.439 123.688 518.928 122.699C521.433 121.71 524.365 121.216 527.723 121.216C532.683 121.216 536.587 122.264 539.433 124.361C542.297 126.457 543.967 129.312 544.445 132.926ZM570.096 161.767C566.056 161.767 562.579 160.949 559.664 159.312C556.766 157.659 554.533 155.324 552.965 152.307C551.397 149.273 550.613 145.685 550.613 141.543C550.613 137.503 551.397 133.957 552.965 130.906C554.533 127.855 556.741 125.477 559.587 123.773C562.451 122.068 565.809 121.216 569.661 121.216C572.252 121.216 574.664 121.634 576.897 122.469C579.147 123.287 581.107 124.523 582.778 126.176C584.465 127.83 585.778 129.909 586.715 132.415C587.653 134.903 588.121 137.818 588.121 141.159V144.151H554.96V137.401H577.869C577.869 135.832 577.528 134.443 576.846 133.233C576.164 132.023 575.218 131.077 574.008 130.395C572.815 129.696 571.425 129.347 569.84 129.347C568.187 129.347 566.721 129.73 565.442 130.497C564.181 131.247 563.192 132.261 562.477 133.54C561.761 134.801 561.394 136.207 561.377 137.759V144.176C561.377 146.119 561.735 147.798 562.451 149.213C563.184 150.628 564.215 151.719 565.545 152.486C566.874 153.253 568.451 153.636 570.275 153.636C571.485 153.636 572.593 153.466 573.599 153.125C574.604 152.784 575.465 152.273 576.181 151.591C576.897 150.909 577.442 150.074 577.817 149.085L587.891 149.75C587.38 152.17 586.332 154.284 584.746 156.091C583.178 157.881 581.15 159.278 578.661 160.284C576.19 161.273 573.335 161.767 570.096 161.767ZM77.5568 203.764V194.636H120.562V203.764H104.531V247H93.5881V203.764H77.5568ZM139.643 247.767C135.603 247.767 132.126 246.949 129.211 245.312C126.313 243.659 124.08 241.324 122.512 238.307C120.944 235.273 120.16 231.685 120.16 227.543C120.16 223.503 120.944 219.957 122.512 216.906C124.08 213.855 126.288 211.477 129.134 209.773C131.998 208.068 135.356 207.216 139.208 207.216C141.799 207.216 144.211 207.634 146.444 208.469C148.694 209.287 150.654 210.523 152.325 212.176C154.012 213.83 155.325 215.909 156.262 218.415C157.2 220.903 157.668 223.818 157.668 227.159V230.151H124.506V223.401H147.415C147.415 221.832 147.075 220.443 146.393 219.233C145.711 218.023 144.765 217.077 143.555 216.395C142.362 215.696 140.972 215.347 139.387 215.347C137.734 215.347 136.268 215.73 134.989 216.497C133.728 217.247 132.739 218.261 132.023 219.54C131.308 220.801 130.941 222.207 130.924 223.759V230.176C130.924 232.119 131.282 233.798 131.998 235.213C132.731 236.628 133.762 237.719 135.092 238.486C136.421 239.253 137.998 239.636 139.822 239.636C141.032 239.636 142.14 239.466 143.146 239.125C144.151 238.784 145.012 238.273 145.728 237.591C146.444 236.909 146.989 236.074 147.364 235.085L157.438 235.75C156.927 238.17 155.879 240.284 154.293 242.091C152.725 243.881 150.697 245.278 148.208 246.284C145.737 247.273 142.881 247.767 139.643 247.767ZM164.776 247V207.727H175.336V214.58H175.745C176.461 212.142 177.663 210.301 179.35 209.057C181.038 207.795 182.981 207.165 185.18 207.165C185.725 207.165 186.313 207.199 186.944 207.267C187.575 207.335 188.129 207.429 188.606 207.548V217.213C188.094 217.06 187.387 216.923 186.484 216.804C185.58 216.685 184.754 216.625 184.004 216.625C182.401 216.625 180.969 216.974 179.708 217.673C178.464 218.355 177.475 219.31 176.742 220.537C176.026 221.764 175.668 223.179 175.668 224.781V247H164.776ZM194.237 247V207.727H204.797V214.58H205.206C205.922 212.142 207.124 210.301 208.811 209.057C210.499 207.795 212.442 207.165 214.641 207.165C215.186 207.165 215.774 207.199 216.405 207.267C217.036 207.335 217.589 207.429 218.067 207.548V217.213C217.555 217.06 216.848 216.923 215.945 216.804C215.041 216.685 214.214 216.625 213.464 216.625C211.862 216.625 210.43 216.974 209.169 217.673C207.925 218.355 206.936 219.31 206.203 220.537C205.487 221.764 205.129 223.179 205.129 224.781V247H194.237ZM233.772 247.741C231.266 247.741 229.033 247.307 227.073 246.438C225.113 245.551 223.562 244.247 222.42 242.526C221.295 240.787 220.732 238.622 220.732 236.031C220.732 233.849 221.133 232.017 221.934 230.534C222.735 229.051 223.826 227.858 225.207 226.955C226.587 226.051 228.156 225.369 229.911 224.909C231.684 224.449 233.542 224.125 235.485 223.938C237.769 223.699 239.61 223.477 241.008 223.273C242.406 223.051 243.42 222.727 244.05 222.301C244.681 221.875 244.996 221.244 244.996 220.409V220.256C244.996 218.636 244.485 217.384 243.462 216.497C242.457 215.611 241.025 215.168 239.167 215.168C237.207 215.168 235.647 215.602 234.488 216.472C233.329 217.324 232.562 218.398 232.187 219.693L222.113 218.875C222.624 216.489 223.63 214.426 225.13 212.688C226.63 210.932 228.565 209.585 230.934 208.648C233.32 207.693 236.082 207.216 239.218 207.216C241.4 207.216 243.488 207.472 245.482 207.983C247.494 208.494 249.275 209.287 250.826 210.361C252.394 211.435 253.63 212.815 254.533 214.503C255.437 216.173 255.888 218.176 255.888 220.511V247H245.559V241.554H245.252C244.621 242.781 243.778 243.864 242.721 244.801C241.664 245.722 240.394 246.446 238.911 246.974C237.428 247.486 235.715 247.741 233.772 247.741ZM236.891 240.224C238.494 240.224 239.908 239.909 241.136 239.278C242.363 238.631 243.326 237.761 244.025 236.67C244.724 235.58 245.073 234.344 245.073 232.963V228.795C244.732 229.017 244.263 229.222 243.667 229.409C243.087 229.58 242.431 229.741 241.698 229.895C240.965 230.031 240.232 230.159 239.499 230.278C238.766 230.381 238.102 230.474 237.505 230.56C236.227 230.747 235.11 231.045 234.156 231.455C233.201 231.864 232.46 232.418 231.931 233.116C231.403 233.798 231.138 234.651 231.138 235.673C231.138 237.156 231.675 238.29 232.749 239.074C233.84 239.841 235.221 240.224 236.891 240.224ZM285.458 207.727V215.909H261.219V207.727H285.458ZM266.768 247V204.889C266.768 202.043 267.322 199.682 268.43 197.807C269.555 195.932 271.089 194.526 273.032 193.588C274.975 192.651 277.183 192.182 279.654 192.182C281.325 192.182 282.85 192.31 284.231 192.565C285.629 192.821 286.668 193.051 287.35 193.256L285.407 201.438C284.981 201.301 284.452 201.173 283.822 201.054C283.208 200.935 282.577 200.875 281.93 200.875C280.327 200.875 279.211 201.25 278.58 202C277.95 202.733 277.634 203.764 277.634 205.094V247H266.768ZM308.45 247.767C304.479 247.767 301.044 246.923 298.146 245.236C295.266 243.531 293.041 241.162 291.473 238.128C289.905 235.077 289.121 231.54 289.121 227.517C289.121 223.46 289.905 219.915 291.473 216.881C293.041 213.83 295.266 211.46 298.146 209.773C301.044 208.068 304.479 207.216 308.45 207.216C312.422 207.216 315.848 208.068 318.729 209.773C321.626 211.46 323.859 213.83 325.428 216.881C326.996 219.915 327.78 223.46 327.78 227.517C327.78 231.54 326.996 235.077 325.428 238.128C323.859 241.162 321.626 243.531 318.729 245.236C315.848 246.923 312.422 247.767 308.45 247.767ZM308.501 239.33C310.308 239.33 311.817 238.818 313.027 237.795C314.237 236.756 315.149 235.341 315.763 233.551C316.393 231.761 316.709 229.724 316.709 227.44C316.709 225.156 316.393 223.119 315.763 221.33C315.149 219.54 314.237 218.125 313.027 217.085C311.817 216.045 310.308 215.526 308.501 215.526C306.678 215.526 305.143 216.045 303.899 217.085C302.672 218.125 301.743 219.54 301.112 221.33C300.499 223.119 300.192 225.156 300.192 227.44C300.192 229.724 300.499 231.761 301.112 233.551C301.743 235.341 302.672 236.756 303.899 237.795C305.143 238.818 306.678 239.33 308.501 239.33ZM334.862 247V207.727H345.422V214.58H345.831C346.547 212.142 347.749 210.301 349.436 209.057C351.124 207.795 353.067 207.165 355.266 207.165C355.811 207.165 356.399 207.199 357.03 207.267C357.661 207.335 358.214 207.429 358.692 207.548V217.213C358.18 217.06 357.473 216.923 356.57 216.804C355.666 216.685 354.839 216.625 354.089 216.625C352.487 216.625 351.055 216.974 349.794 217.673C348.55 218.355 347.561 219.31 346.828 220.537C346.112 221.764 345.754 223.179 345.754 224.781V247H334.862ZM364.323 247V207.727H374.704V214.656H375.164C375.982 212.355 377.346 210.54 379.255 209.21C381.164 207.881 383.448 207.216 386.107 207.216C388.8 207.216 391.093 207.889 392.985 209.236C394.877 210.565 396.138 212.372 396.769 214.656H397.178C397.979 212.406 399.428 210.608 401.525 209.261C403.638 207.898 406.136 207.216 409.016 207.216C412.681 207.216 415.656 208.384 417.94 210.719C420.241 213.037 421.391 216.327 421.391 220.588V247H410.525V222.736C410.525 220.554 409.945 218.918 408.786 217.827C407.627 216.736 406.178 216.19 404.44 216.19C402.462 216.19 400.92 216.821 399.812 218.082C398.704 219.327 398.15 220.972 398.15 223.017V247H387.59V222.506C387.59 220.58 387.036 219.045 385.928 217.903C384.837 216.761 383.397 216.19 381.607 216.19C380.397 216.19 379.306 216.497 378.335 217.111C377.38 217.707 376.621 218.551 376.059 219.642C375.496 220.716 375.215 221.977 375.215 223.426V247H364.323ZM79.5511 280.636H93.2045L107.625 315.818H108.239L122.659 280.636H136.312V333H125.574V298.918H125.139L111.588 332.744H104.276L90.7244 298.79H90.2898V333H79.5511V280.636ZM162.974 333.767C159.002 333.767 155.567 332.923 152.67 331.236C149.789 329.531 147.565 327.162 145.996 324.128C144.428 321.077 143.644 317.54 143.644 313.517C143.644 309.46 144.428 305.915 145.996 302.881C147.565 299.83 149.789 297.46 152.67 295.773C155.567 294.068 159.002 293.216 162.974 293.216C166.945 293.216 170.371 294.068 173.252 295.773C176.15 297.46 178.383 299.83 179.951 302.881C181.519 305.915 182.303 309.46 182.303 313.517C182.303 317.54 181.519 321.077 179.951 324.128C178.383 327.162 176.15 329.531 173.252 331.236C170.371 332.923 166.945 333.767 162.974 333.767ZM163.025 325.33C164.832 325.33 166.34 324.818 167.55 323.795C168.761 322.756 169.673 321.341 170.286 319.551C170.917 317.761 171.232 315.724 171.232 313.44C171.232 311.156 170.917 309.119 170.286 307.33C169.673 305.54 168.761 304.125 167.55 303.085C166.34 302.045 164.832 301.526 163.025 301.526C161.201 301.526 159.667 302.045 158.423 303.085C157.195 304.125 156.266 305.54 155.636 307.33C155.022 309.119 154.715 311.156 154.715 313.44C154.715 315.724 155.022 317.761 155.636 319.551C156.266 321.341 157.195 322.756 158.423 323.795C159.667 324.818 161.201 325.33 163.025 325.33ZM203.857 333.639C200.874 333.639 198.173 332.872 195.752 331.338C193.349 329.787 191.44 327.511 190.025 324.511C188.627 321.494 187.928 317.795 187.928 313.415C187.928 308.915 188.653 305.173 190.102 302.19C191.55 299.19 193.477 296.949 195.88 295.466C198.3 293.966 200.951 293.216 203.832 293.216C206.031 293.216 207.863 293.591 209.329 294.341C210.812 295.074 212.005 295.994 212.908 297.102C213.829 298.193 214.528 299.267 215.005 300.324H215.337V280.636H226.204V333H215.465V326.71H215.005C214.494 327.801 213.769 328.884 212.832 329.957C211.911 331.014 210.71 331.892 209.227 332.591C207.761 333.29 205.971 333.639 203.857 333.639ZM207.309 324.972C209.065 324.972 210.548 324.494 211.758 323.54C212.985 322.568 213.923 321.213 214.57 319.474C215.235 317.736 215.567 315.699 215.567 313.364C215.567 311.028 215.244 309 214.596 307.278C213.948 305.557 213.011 304.227 211.783 303.29C210.556 302.352 209.065 301.884 207.309 301.884C205.519 301.884 204.011 302.369 202.783 303.341C201.556 304.312 200.627 305.659 199.996 307.381C199.366 309.102 199.05 311.097 199.05 313.364C199.05 315.648 199.366 317.668 199.996 319.423C200.644 321.162 201.573 322.526 202.783 323.514C204.011 324.486 205.519 324.972 207.309 324.972ZM260.344 316.278V293.727H271.236V333H260.778V325.866H260.369C259.483 328.168 258.009 330.017 255.946 331.415C253.901 332.812 251.403 333.511 248.455 333.511C245.83 333.511 243.52 332.915 241.526 331.722C239.531 330.528 237.972 328.832 236.847 326.634C235.739 324.435 235.176 321.801 235.159 318.733V293.727H246.051V316.79C246.068 319.108 246.69 320.94 247.918 322.287C249.145 323.634 250.79 324.307 252.852 324.307C254.165 324.307 255.392 324.009 256.534 323.412C257.676 322.798 258.597 321.895 259.295 320.702C260.011 319.509 260.361 318.034 260.344 316.278ZM290.84 280.636V333H279.948V280.636H290.84ZM317.463 333.767C313.423 333.767 309.946 332.949 307.031 331.312C304.134 329.659 301.901 327.324 300.332 324.307C298.764 321.273 297.98 317.685 297.98 313.543C297.98 309.503 298.764 305.957 300.332 302.906C301.901 299.855 304.108 297.477 306.955 295.773C309.818 294.068 313.176 293.216 317.028 293.216C319.619 293.216 322.031 293.634 324.264 294.469C326.514 295.287 328.474 296.523 330.145 298.176C331.832 299.83 333.145 301.909 334.082 304.415C335.02 306.903 335.489 309.818 335.489 313.159V316.151H302.327V309.401H325.236C325.236 307.832 324.895 306.443 324.213 305.233C323.531 304.023 322.585 303.077 321.375 302.395C320.182 301.696 318.793 301.347 317.207 301.347C315.554 301.347 314.088 301.73 312.81 302.497C311.548 303.247 310.56 304.261 309.844 305.54C309.128 306.801 308.761 308.207 308.744 309.759V316.176C308.744 318.119 309.102 319.798 309.818 321.213C310.551 322.628 311.582 323.719 312.912 324.486C314.241 325.253 315.818 325.636 317.642 325.636C318.852 325.636 319.96 325.466 320.966 325.125C321.972 324.784 322.832 324.273 323.548 323.591C324.264 322.909 324.81 322.074 325.185 321.085L335.259 321.75C334.747 324.17 333.699 326.284 332.114 328.091C330.545 329.881 328.517 331.278 326.028 332.284C323.557 333.273 320.702 333.767 317.463 333.767ZM375.273 304.926L365.301 305.54C365.131 304.687 364.764 303.92 364.202 303.239C363.639 302.54 362.898 301.986 361.977 301.577C361.074 301.151 359.991 300.938 358.73 300.938C357.043 300.938 355.619 301.295 354.46 302.011C353.301 302.71 352.722 303.648 352.722 304.824C352.722 305.761 353.097 306.554 353.847 307.202C354.597 307.849 355.884 308.369 357.707 308.761L364.815 310.193C368.634 310.977 371.48 312.239 373.355 313.977C375.23 315.716 376.168 318 376.168 320.83C376.168 323.403 375.409 325.662 373.892 327.605C372.392 329.548 370.33 331.065 367.705 332.156C365.097 333.23 362.088 333.767 358.679 333.767C353.48 333.767 349.338 332.685 346.253 330.52C343.185 328.338 341.386 325.372 340.858 321.622L351.571 321.06C351.895 322.645 352.679 323.855 353.923 324.69C355.168 325.509 356.761 325.918 358.705 325.918C360.614 325.918 362.148 325.551 363.307 324.818C364.483 324.068 365.08 323.105 365.097 321.929C365.08 320.94 364.662 320.131 363.844 319.5C363.026 318.852 361.764 318.358 360.06 318.017L353.259 316.662C349.423 315.895 346.568 314.565 344.693 312.673C342.835 310.781 341.906 308.369 341.906 305.438C341.906 302.915 342.588 300.741 343.952 298.918C345.332 297.094 347.267 295.688 349.756 294.699C352.261 293.71 355.193 293.216 358.551 293.216C363.511 293.216 367.415 294.264 370.261 296.361C373.125 298.457 374.795 301.312 375.273 304.926Z" fill="#E6E4E3"/>
<path d="M77.5568 368.727H81.8182L89.2273 386.818H89.5L96.9091 368.727H101.17V392H97.8295V375.159H97.6136L90.75 391.966H87.9773L81.1136 375.148H80.8977V392H77.5568V368.727ZM111.082 392.386C109.976 392.386 108.976 392.182 108.082 391.773C107.188 391.356 106.48 390.754 105.957 389.966C105.442 389.178 105.185 388.212 105.185 387.068C105.185 386.083 105.374 385.273 105.753 384.636C106.132 384 106.643 383.496 107.287 383.125C107.931 382.754 108.651 382.473 109.446 382.284C110.241 382.095 111.052 381.951 111.878 381.852C112.923 381.731 113.772 381.633 114.423 381.557C115.075 381.473 115.548 381.341 115.844 381.159C116.139 380.977 116.287 380.682 116.287 380.273V380.193C116.287 379.201 116.007 378.432 115.446 377.886C114.893 377.341 114.067 377.068 112.969 377.068C111.825 377.068 110.923 377.322 110.264 377.83C109.613 378.33 109.162 378.886 108.912 379.5L105.719 378.773C106.098 377.712 106.651 376.856 107.378 376.205C108.113 375.545 108.957 375.068 109.912 374.773C110.866 374.47 111.87 374.318 112.923 374.318C113.62 374.318 114.359 374.402 115.139 374.568C115.927 374.727 116.662 375.023 117.344 375.455C118.033 375.886 118.598 376.504 119.037 377.307C119.476 378.102 119.696 379.136 119.696 380.409V392H116.378V389.614H116.241C116.022 390.053 115.692 390.485 115.253 390.909C114.813 391.333 114.249 391.686 113.56 391.966C112.87 392.246 112.045 392.386 111.082 392.386ZM111.821 389.659C112.76 389.659 113.563 389.473 114.23 389.102C114.904 388.731 115.416 388.246 115.764 387.648C116.12 387.042 116.298 386.394 116.298 385.705V383.455C116.177 383.576 115.942 383.689 115.594 383.795C115.253 383.894 114.863 383.981 114.423 384.057C113.984 384.125 113.556 384.189 113.139 384.25C112.723 384.303 112.374 384.348 112.094 384.386C111.435 384.47 110.832 384.61 110.287 384.807C109.749 385.004 109.317 385.288 108.991 385.659C108.673 386.023 108.514 386.508 108.514 387.114C108.514 387.955 108.825 388.591 109.446 389.023C110.067 389.447 110.859 389.659 111.821 389.659ZM130.756 392.341C129.347 392.341 128.089 391.981 126.983 391.261C125.884 390.534 125.021 389.5 124.392 388.159C123.771 386.811 123.46 385.193 123.46 383.307C123.46 381.42 123.775 379.807 124.403 378.466C125.04 377.125 125.911 376.098 127.017 375.386C128.123 374.674 129.377 374.318 130.778 374.318C131.862 374.318 132.733 374.5 133.392 374.864C134.059 375.22 134.574 375.636 134.938 376.114C135.309 376.591 135.597 377.011 135.801 377.375H136.006V368.727H139.403V392H136.085V389.284H135.801C135.597 389.655 135.301 390.08 134.915 390.557C134.536 391.034 134.013 391.451 133.347 391.807C132.68 392.163 131.816 392.341 130.756 392.341ZM131.506 389.443C132.483 389.443 133.309 389.186 133.983 388.67C134.665 388.148 135.18 387.424 135.528 386.5C135.884 385.576 136.062 384.5 136.062 383.273C136.062 382.061 135.888 381 135.54 380.091C135.191 379.182 134.68 378.473 134.006 377.966C133.331 377.458 132.498 377.205 131.506 377.205C130.483 377.205 129.631 377.47 128.949 378C128.267 378.53 127.752 379.254 127.403 380.17C127.063 381.087 126.892 382.121 126.892 383.273C126.892 384.439 127.066 385.489 127.415 386.42C127.763 387.352 128.278 388.091 128.96 388.636C129.65 389.174 130.498 389.443 131.506 389.443ZM151.776 392.352C150.056 392.352 148.575 391.985 147.332 391.25C146.098 390.508 145.143 389.466 144.469 388.125C143.802 386.777 143.469 385.197 143.469 383.386C143.469 381.598 143.802 380.023 144.469 378.659C145.143 377.295 146.082 376.231 147.287 375.466C148.499 374.701 149.916 374.318 151.537 374.318C152.522 374.318 153.476 374.481 154.401 374.807C155.325 375.133 156.154 375.644 156.889 376.341C157.624 377.038 158.204 377.943 158.628 379.057C159.052 380.163 159.264 381.508 159.264 383.091V384.295H145.389V381.75H155.935C155.935 380.856 155.753 380.064 155.389 379.375C155.026 378.678 154.514 378.129 153.855 377.727C153.204 377.326 152.438 377.125 151.56 377.125C150.605 377.125 149.772 377.36 149.06 377.83C148.355 378.292 147.81 378.898 147.423 379.648C147.045 380.39 146.855 381.197 146.855 382.068V384.057C146.855 385.223 147.06 386.216 147.469 387.034C147.885 387.852 148.465 388.477 149.207 388.909C149.95 389.333 150.817 389.545 151.81 389.545C152.454 389.545 153.041 389.455 153.571 389.273C154.101 389.083 154.56 388.803 154.946 388.432C155.332 388.061 155.628 387.602 155.832 387.057L159.048 387.636C158.791 388.583 158.329 389.413 157.662 390.125C157.003 390.83 156.173 391.379 155.173 391.773C154.181 392.159 153.048 392.352 151.776 392.352ZM179.651 374.545V377.273H170.116V374.545H179.651ZM172.673 370.364H176.071V386.875C176.071 387.534 176.17 388.03 176.366 388.364C176.563 388.689 176.817 388.913 177.128 389.034C177.446 389.148 177.791 389.205 178.162 389.205C178.435 389.205 178.673 389.186 178.878 389.148C179.082 389.11 179.241 389.08 179.355 389.057L179.969 391.864C179.772 391.939 179.491 392.015 179.128 392.091C178.764 392.174 178.31 392.22 177.764 392.227C176.87 392.242 176.037 392.083 175.264 391.75C174.491 391.417 173.866 390.902 173.389 390.205C172.912 389.508 172.673 388.633 172.673 387.58V370.364ZM190.574 392.352C188.938 392.352 187.509 391.977 186.29 391.227C185.07 390.477 184.123 389.428 183.449 388.08C182.775 386.731 182.438 385.155 182.438 383.352C182.438 381.542 182.775 379.958 183.449 378.602C184.123 377.246 185.07 376.193 186.29 375.443C187.509 374.693 188.938 374.318 190.574 374.318C192.21 374.318 193.638 374.693 194.858 375.443C196.078 376.193 197.025 377.246 197.699 378.602C198.373 379.958 198.71 381.542 198.71 383.352C198.71 385.155 198.373 386.731 197.699 388.08C197.025 389.428 196.078 390.477 194.858 391.227C193.638 391.977 192.21 392.352 190.574 392.352ZM190.585 389.5C191.646 389.5 192.525 389.22 193.222 388.659C193.919 388.098 194.434 387.352 194.767 386.42C195.108 385.489 195.278 384.462 195.278 383.341C195.278 382.227 195.108 381.205 194.767 380.273C194.434 379.333 193.919 378.58 193.222 378.011C192.525 377.443 191.646 377.159 190.585 377.159C189.517 377.159 188.631 377.443 187.926 378.011C187.229 378.58 186.71 379.333 186.369 380.273C186.036 381.205 185.869 382.227 185.869 383.341C185.869 384.462 186.036 385.489 186.369 386.42C186.71 387.352 187.229 388.098 187.926 388.659C188.631 389.22 189.517 389.5 190.585 389.5ZM218.324 392.352C216.634 392.352 215.18 391.97 213.96 391.205C212.748 390.432 211.816 389.367 211.165 388.011C210.513 386.655 210.188 385.102 210.188 383.352C210.188 381.58 210.521 380.015 211.188 378.659C211.854 377.295 212.794 376.231 214.006 375.466C215.218 374.701 216.646 374.318 218.29 374.318C219.616 374.318 220.797 374.564 221.835 375.057C222.873 375.542 223.71 376.223 224.347 377.102C224.991 377.981 225.373 379.008 225.494 380.182H222.188C222.006 379.364 221.589 378.659 220.938 378.068C220.294 377.477 219.43 377.182 218.347 377.182C217.4 377.182 216.57 377.432 215.858 377.932C215.153 378.424 214.604 379.129 214.21 380.045C213.816 380.955 213.619 382.03 213.619 383.273C213.619 384.545 213.813 385.644 214.199 386.568C214.585 387.492 215.131 388.208 215.835 388.716C216.547 389.223 217.384 389.477 218.347 389.477C218.991 389.477 219.574 389.36 220.097 389.125C220.627 388.883 221.07 388.538 221.426 388.091C221.79 387.644 222.044 387.106 222.188 386.477H225.494C225.373 387.606 225.006 388.614 224.392 389.5C223.778 390.386 222.956 391.083 221.926 391.591C220.903 392.098 219.703 392.352 218.324 392.352ZM236.48 392.352C234.844 392.352 233.416 391.977 232.196 391.227C230.976 390.477 230.029 389.428 229.355 388.08C228.681 386.731 228.344 385.155 228.344 383.352C228.344 381.542 228.681 379.958 229.355 378.602C230.029 377.246 230.976 376.193 232.196 375.443C233.416 374.693 234.844 374.318 236.48 374.318C238.116 374.318 239.545 374.693 240.764 375.443C241.984 376.193 242.931 377.246 243.605 378.602C244.279 379.958 244.616 381.542 244.616 383.352C244.616 385.155 244.279 386.731 243.605 388.08C242.931 389.428 241.984 390.477 240.764 391.227C239.545 391.977 238.116 392.352 236.48 392.352ZM236.491 389.5C237.552 389.5 238.431 389.22 239.128 388.659C239.825 388.098 240.34 387.352 240.673 386.42C241.014 385.489 241.185 384.462 241.185 383.341C241.185 382.227 241.014 381.205 240.673 380.273C240.34 379.333 239.825 378.58 239.128 378.011C238.431 377.443 237.552 377.159 236.491 377.159C235.423 377.159 234.537 377.443 233.832 378.011C233.135 378.58 232.616 379.333 232.276 380.273C231.942 381.205 231.776 382.227 231.776 383.341C231.776 384.462 231.942 385.489 232.276 386.42C232.616 387.352 233.135 388.098 233.832 388.659C234.537 389.22 235.423 389.5 236.491 389.5ZM248.409 398.545V374.545H251.727V377.375H252.011C252.208 377.011 252.492 376.591 252.864 376.114C253.235 375.636 253.75 375.22 254.409 374.864C255.068 374.5 255.939 374.318 257.023 374.318C258.432 374.318 259.689 374.674 260.795 375.386C261.902 376.098 262.769 377.125 263.398 378.466C264.034 379.807 264.352 381.42 264.352 383.307C264.352 385.193 264.038 386.811 263.409 388.159C262.78 389.5 261.917 390.534 260.818 391.261C259.72 391.981 258.466 392.341 257.057 392.341C255.996 392.341 255.129 392.163 254.455 391.807C253.788 391.451 253.265 391.034 252.886 390.557C252.508 390.08 252.216 389.655 252.011 389.284H251.807V398.545H248.409ZM251.739 383.273C251.739 384.5 251.917 385.576 252.273 386.5C252.629 387.424 253.144 388.148 253.818 388.67C254.492 389.186 255.318 389.443 256.295 389.443C257.311 389.443 258.159 389.174 258.841 388.636C259.523 388.091 260.038 387.352 260.386 386.42C260.742 385.489 260.92 384.439 260.92 383.273C260.92 382.121 260.746 381.087 260.398 380.17C260.057 379.254 259.542 378.53 258.852 378C258.17 377.47 257.318 377.205 256.295 377.205C255.311 377.205 254.477 377.458 253.795 377.966C253.121 378.473 252.61 379.182 252.261 380.091C251.913 381 251.739 382.061 251.739 383.273ZM269.713 398.545C269.205 398.545 268.743 398.504 268.327 398.42C267.91 398.345 267.599 398.261 267.395 398.17L268.213 395.386C268.834 395.553 269.387 395.625 269.872 395.602C270.357 395.58 270.785 395.398 271.156 395.057C271.535 394.716 271.868 394.159 272.156 393.386L272.577 392.227L266.19 374.545H269.827L274.247 388.091H274.429L278.849 374.545H282.497L275.304 394.33C274.971 395.239 274.546 396.008 274.031 396.636C273.516 397.273 272.902 397.75 272.19 398.068C271.478 398.386 270.652 398.545 269.713 398.545ZM299.239 392.386C298.133 392.386 297.133 392.182 296.239 391.773C295.345 391.356 294.636 390.754 294.114 389.966C293.598 389.178 293.341 388.212 293.341 387.068C293.341 386.083 293.53 385.273 293.909 384.636C294.288 384 294.799 383.496 295.443 383.125C296.087 382.754 296.807 382.473 297.602 382.284C298.398 382.095 299.208 381.951 300.034 381.852C301.08 381.731 301.928 381.633 302.58 381.557C303.231 381.473 303.705 381.341 304 381.159C304.295 380.977 304.443 380.682 304.443 380.273V380.193C304.443 379.201 304.163 378.432 303.602 377.886C303.049 377.341 302.223 377.068 301.125 377.068C299.981 377.068 299.08 377.322 298.42 377.83C297.769 378.33 297.318 378.886 297.068 379.5L293.875 378.773C294.254 377.712 294.807 376.856 295.534 376.205C296.269 375.545 297.114 375.068 298.068 374.773C299.023 374.47 300.027 374.318 301.08 374.318C301.777 374.318 302.515 374.402 303.295 374.568C304.083 374.727 304.818 375.023 305.5 375.455C306.189 375.886 306.754 376.504 307.193 377.307C307.633 378.102 307.852 379.136 307.852 380.409V392H304.534V389.614H304.398C304.178 390.053 303.848 390.485 303.409 390.909C302.97 391.333 302.405 391.686 301.716 391.966C301.027 392.246 300.201 392.386 299.239 392.386ZM299.977 389.659C300.917 389.659 301.72 389.473 302.386 389.102C303.061 388.731 303.572 388.246 303.92 387.648C304.277 387.042 304.455 386.394 304.455 385.705V383.455C304.333 383.576 304.098 383.689 303.75 383.795C303.409 383.894 303.019 383.981 302.58 384.057C302.14 384.125 301.712 384.189 301.295 384.25C300.879 384.303 300.53 384.348 300.25 384.386C299.591 384.47 298.989 384.61 298.443 384.807C297.905 385.004 297.473 385.288 297.148 385.659C296.83 386.023 296.67 386.508 296.67 387.114C296.67 387.955 296.981 388.591 297.602 389.023C298.223 389.447 299.015 389.659 299.977 389.659ZM315.776 381.636V392H312.378V374.545H315.639V377.386H315.855C316.257 376.462 316.885 375.72 317.741 375.159C318.605 374.598 319.692 374.318 321.003 374.318C322.192 374.318 323.234 374.568 324.128 375.068C325.022 375.561 325.715 376.295 326.207 377.273C326.7 378.25 326.946 379.458 326.946 380.898V392H323.548V381.307C323.548 380.042 323.219 379.053 322.56 378.341C321.901 377.621 320.995 377.261 319.844 377.261C319.056 377.261 318.355 377.432 317.741 377.773C317.135 378.114 316.654 378.614 316.298 379.273C315.95 379.924 315.776 380.712 315.776 381.636ZM338.037 392.341C336.628 392.341 335.37 391.981 334.264 391.261C333.166 390.534 332.302 389.5 331.673 388.159C331.052 386.811 330.741 385.193 330.741 383.307C330.741 381.42 331.056 379.807 331.685 378.466C332.321 377.125 333.192 376.098 334.298 375.386C335.404 374.674 336.658 374.318 338.06 374.318C339.143 374.318 340.014 374.5 340.673 374.864C341.34 375.22 341.855 375.636 342.219 376.114C342.59 376.591 342.878 377.011 343.082 377.375H343.287V368.727H346.685V392H343.366V389.284H343.082C342.878 389.655 342.582 390.08 342.196 390.557C341.817 391.034 341.295 391.451 340.628 391.807C339.961 392.163 339.098 392.341 338.037 392.341ZM338.787 389.443C339.764 389.443 340.59 389.186 341.264 388.67C341.946 388.148 342.461 387.424 342.81 386.5C343.166 385.576 343.344 384.5 343.344 383.273C343.344 382.061 343.17 381 342.821 380.091C342.473 379.182 341.961 378.473 341.287 377.966C340.613 377.458 339.779 377.205 338.787 377.205C337.764 377.205 336.912 377.47 336.23 378C335.548 378.53 335.033 379.254 334.685 380.17C334.344 381.087 334.173 382.121 334.173 383.273C334.173 384.439 334.348 385.489 334.696 386.42C335.045 387.352 335.56 388.091 336.241 388.636C336.931 389.174 337.779 389.443 338.787 389.443ZM360.003 398.545V374.545H363.321V377.375H363.605C363.802 377.011 364.086 376.591 364.457 376.114C364.829 375.636 365.344 375.22 366.003 374.864C366.662 374.5 367.533 374.318 368.616 374.318C370.026 374.318 371.283 374.674 372.389 375.386C373.495 376.098 374.363 377.125 374.991 378.466C375.628 379.807 375.946 381.42 375.946 383.307C375.946 385.193 375.632 386.811 375.003 388.159C374.374 389.5 373.51 390.534 372.412 391.261C371.313 391.981 370.06 392.341 368.651 392.341C367.59 392.341 366.723 392.163 366.048 391.807C365.382 391.451 364.859 391.034 364.48 390.557C364.101 390.08 363.81 389.655 363.605 389.284H363.401V398.545H360.003ZM363.332 383.273C363.332 384.5 363.51 385.576 363.866 386.5C364.223 387.424 364.738 388.148 365.412 388.67C366.086 389.186 366.912 389.443 367.889 389.443C368.904 389.443 369.753 389.174 370.435 388.636C371.116 388.091 371.632 387.352 371.98 386.42C372.336 385.489 372.514 384.439 372.514 383.273C372.514 382.121 372.34 381.087 371.991 380.17C371.651 379.254 371.135 378.53 370.446 378C369.764 377.47 368.912 377.205 367.889 377.205C366.904 377.205 366.071 377.458 365.389 377.966C364.715 378.473 364.204 379.182 363.855 380.091C363.507 381 363.332 382.061 363.332 383.273ZM384.832 392.386C383.726 392.386 382.726 392.182 381.832 391.773C380.938 391.356 380.23 390.754 379.707 389.966C379.192 389.178 378.935 388.212 378.935 387.068C378.935 386.083 379.124 385.273 379.503 384.636C379.882 384 380.393 383.496 381.037 383.125C381.681 382.754 382.401 382.473 383.196 382.284C383.991 382.095 384.802 381.951 385.628 381.852C386.673 381.731 387.522 381.633 388.173 381.557C388.825 381.473 389.298 381.341 389.594 381.159C389.889 380.977 390.037 380.682 390.037 380.273V380.193C390.037 379.201 389.757 378.432 389.196 377.886C388.643 377.341 387.817 377.068 386.719 377.068C385.575 377.068 384.673 377.322 384.014 377.83C383.363 378.33 382.912 378.886 382.662 379.5L379.469 378.773C379.848 377.712 380.401 376.856 381.128 376.205C381.863 375.545 382.707 375.068 383.662 374.773C384.616 374.47 385.62 374.318 386.673 374.318C387.37 374.318 388.109 374.402 388.889 374.568C389.677 374.727 390.412 375.023 391.094 375.455C391.783 375.886 392.348 376.504 392.787 377.307C393.226 378.102 393.446 379.136 393.446 380.409V392H390.128V389.614H389.991C389.772 390.053 389.442 390.485 389.003 390.909C388.563 391.333 387.999 391.686 387.31 391.966C386.62 392.246 385.795 392.386 384.832 392.386ZM385.571 389.659C386.51 389.659 387.313 389.473 387.98 389.102C388.654 388.731 389.166 388.246 389.514 387.648C389.87 387.042 390.048 386.394 390.048 385.705V383.455C389.927 383.576 389.692 383.689 389.344 383.795C389.003 383.894 388.613 383.981 388.173 384.057C387.734 384.125 387.306 384.189 386.889 384.25C386.473 384.303 386.124 384.348 385.844 384.386C385.185 384.47 384.582 384.61 384.037 384.807C383.499 385.004 383.067 385.288 382.741 385.659C382.423 386.023 382.264 386.508 382.264 387.114C382.264 387.955 382.575 388.591 383.196 389.023C383.817 389.447 384.609 389.659 385.571 389.659ZM411.051 378.807L407.972 379.352C407.843 378.958 407.638 378.583 407.358 378.227C407.085 377.871 406.714 377.58 406.244 377.352C405.775 377.125 405.188 377.011 404.483 377.011C403.521 377.011 402.718 377.227 402.074 377.659C401.43 378.083 401.108 378.633 401.108 379.307C401.108 379.89 401.324 380.36 401.756 380.716C402.188 381.072 402.884 381.364 403.847 381.591L406.619 382.227C408.225 382.598 409.422 383.17 410.21 383.943C410.998 384.716 411.392 385.72 411.392 386.955C411.392 388 411.089 388.932 410.483 389.75C409.884 390.561 409.047 391.197 407.972 391.659C406.903 392.121 405.665 392.352 404.256 392.352C402.301 392.352 400.706 391.936 399.472 391.102C398.237 390.261 397.479 389.068 397.199 387.523L400.483 387.023C400.688 387.879 401.108 388.527 401.744 388.966C402.381 389.398 403.21 389.614 404.233 389.614C405.347 389.614 406.237 389.383 406.903 388.92C407.57 388.451 407.903 387.879 407.903 387.205C407.903 386.659 407.699 386.201 407.29 385.83C406.888 385.458 406.271 385.178 405.438 384.989L402.483 384.341C400.854 383.97 399.65 383.379 398.869 382.568C398.097 381.758 397.71 380.731 397.71 379.489C397.71 378.458 397.998 377.557 398.574 376.784C399.15 376.011 399.945 375.409 400.96 374.977C401.975 374.538 403.138 374.318 404.449 374.318C406.335 374.318 407.82 374.727 408.903 375.545C409.987 376.356 410.703 377.443 411.051 378.807ZM423.276 374.545V377.273H413.741V374.545H423.276ZM416.298 370.364H419.696V386.875C419.696 387.534 419.795 388.03 419.991 388.364C420.188 388.689 420.442 388.913 420.753 389.034C421.071 389.148 421.416 389.205 421.787 389.205C422.06 389.205 422.298 389.186 422.503 389.148C422.707 389.11 422.866 389.08 422.98 389.057L423.594 391.864C423.397 391.939 423.116 392.015 422.753 392.091C422.389 392.174 421.935 392.22 421.389 392.227C420.495 392.242 419.662 392.083 418.889 391.75C418.116 391.417 417.491 390.902 417.014 390.205C416.537 389.508 416.298 388.633 416.298 387.58V370.364ZM434.369 392.352C432.65 392.352 431.169 391.985 429.926 391.25C428.691 390.508 427.737 389.466 427.062 388.125C426.396 386.777 426.062 385.197 426.062 383.386C426.062 381.598 426.396 380.023 427.062 378.659C427.737 377.295 428.676 376.231 429.881 375.466C431.093 374.701 432.509 374.318 434.131 374.318C435.116 374.318 436.07 374.481 436.994 374.807C437.919 375.133 438.748 375.644 439.483 376.341C440.218 377.038 440.797 377.943 441.222 379.057C441.646 380.163 441.858 381.508 441.858 383.091V384.295H427.983V381.75H438.528C438.528 380.856 438.347 380.064 437.983 379.375C437.619 378.678 437.108 378.129 436.449 377.727C435.797 377.326 435.032 377.125 434.153 377.125C433.199 377.125 432.366 377.36 431.653 377.83C430.949 378.292 430.403 378.898 430.017 379.648C429.638 380.39 429.449 381.197 429.449 382.068V384.057C429.449 385.223 429.653 386.216 430.062 387.034C430.479 387.852 431.059 388.477 431.801 388.909C432.544 389.333 433.411 389.545 434.403 389.545C435.047 389.545 435.634 389.455 436.165 389.273C436.695 389.083 437.153 388.803 437.54 388.432C437.926 388.061 438.222 387.602 438.426 387.057L441.642 387.636C441.384 388.583 440.922 389.413 440.256 390.125C439.597 390.83 438.767 391.379 437.767 391.773C436.775 392.159 435.642 392.352 434.369 392.352Z" fill="#A6A4A3"/>
<path d="M995 390H825C799.037 389.993 773.588 382.767 751.496 369.129C729.403 355.491 711.538 335.979 699.897 312.772C688.256 289.566 683.298 263.579 685.576 237.716C687.854 211.854 697.279 187.134 712.797 166.32C728.315 145.505 749.316 129.416 773.452 119.85C797.588 110.284 823.909 107.617 849.473 112.149C875.037 116.681 898.838 128.232 918.215 145.512C937.592 162.792 951.782 185.12 959.2 210H995C1018.87 210 1041.76 219.482 1058.64 236.36C1075.52 253.239 1085 276.131 1085 300C1085 323.87 1075.52 346.761 1058.64 363.64C1041.76 380.518 1018.87 390 995 390Z" stroke="#FFC799" stroke-width="40" stroke-linecap="round" stroke-linejoin="round"/>
</svg>
