<svg width="512" height="512" viewBox="0 0 512 512" fill="none" xmlns="http://www.w3.org/2000/svg">
<rect width="512" height="512" rx="32" fill="white"/>
<path d="M358.667 386.667H200C175.768 386.66 152.015 379.916 131.396 367.187C110.776 354.459 94.1025 336.247 83.2376 314.587C72.3727 292.928 67.7447 268.674 69.8708 244.535C71.9969 220.397 80.7934 197.325 95.2772 177.898C109.761 158.471 129.362 143.455 151.889 134.526C174.416 125.598 198.982 123.11 222.841 127.339C246.701 131.569 268.915 142.35 287 158.478C305.086 174.606 318.33 195.445 325.253 218.667H358.667C380.945 218.667 402.311 227.517 418.064 243.27C433.817 259.023 442.667 280.388 442.667 302.667C442.667 324.945 433.817 346.311 418.064 362.064C402.311 377.817 380.945 386.667 358.667 386.667Z" stroke="#FFC799" stroke-width="37.3333" stroke-linecap="round" stroke-linejoin="round"/>
</svg>
